<svg width="23" height="18" viewBox="0 0 23 18" fill="none" xmlns="http://www.w3.org/2000/svg">
<path d="M11.3906 4.9043C11.4648 4.83008 11.5762 4.79297 11.6875 4.79297C11.7617 4.79297 11.873 4.83008 11.9473 4.9043L18.8125 10.5078V16.5938C18.8125 16.9277 18.5156 17.1875 18.2188 17.1875H14.0254C13.7285 17.1875 13.4316 16.9277 13.4316 16.5938V13.0312C13.4316 12.7344 13.1719 12.4375 12.8379 12.4375H10.4629C10.166 12.4375 9.86914 12.7344 9.86914 13.0312V16.5938C9.86914 16.9277 9.60938 17.1875 9.3125 17.1875H5.15625C4.82227 17.1875 4.5625 16.9277 4.5625 16.5938V10.5449L11.3906 4.9043ZM22.1895 8.72656C22.3008 8.80078 22.375 8.94922 22.375 9.06055C22.375 9.17188 22.3379 9.2832 22.2637 9.35742L21.2988 10.5078C21.2246 10.6191 21.1133 10.6562 20.9648 10.6562C20.8535 10.6562 20.7422 10.6191 20.668 10.5449L11.9473 3.38281C11.873 3.30859 11.7617 3.27148 11.6875 3.27148C11.5762 3.27148 11.4648 3.30859 11.3906 3.38281L2.66992 10.5449C2.5957 10.6191 2.48438 10.6562 2.37305 10.6562C2.22461 10.6562 2.11328 10.6191 2.03906 10.5078L1.07422 9.35742C1.03711 9.2832 0.962891 9.17188 0.962891 9.06055C0.962891 8.94922 1.03711 8.80078 1.14844 8.72656L10.5371 0.970703C10.834 0.748047 11.2422 0.599609 11.6875 0.599609C12.0957 0.599609 12.5039 0.748047 12.8008 0.970703L16.1406 3.7168V1.04492C16.1406 0.785156 16.3262 0.599609 16.5859 0.599609H18.6641C18.8867 0.599609 19.1094 0.785156 19.1094 1.04492V6.16602L22.1895 8.72656Z" fill="black" fill-opacity="0.55"/>
</svg>
