<svg width="16" height="22" viewBox="0 0 16 22" fill="none" xmlns="http://www.w3.org/2000/svg">
<path d="M16 5.63678V5.88678H10.6666V0.553456H10.9166C11.1666 0.553456 11.4166 0.678455 11.625 0.886788L15.6666 4.92845C15.875 5.13678 16 5.38678 16 5.63678ZM10.3333 7.22011H16V20.8868C16 21.4701 15.5416 21.8868 15 21.8868H0.999998C0.416666 21.8868 0 21.4701 0 20.8868V1.55345C0 1.01179 0.416666 0.553456 0.999998 0.553456H9.33332V6.22011C9.33332 6.80345 9.74998 7.22011 10.3333 7.22011ZM4.66666 7.88678C3.58333 7.88678 2.66666 8.80344 2.66666 9.88677C2.66666 11.0118 3.58333 11.8868 4.66666 11.8868C5.79166 11.8868 6.66666 11.0118 6.66666 9.88677C6.66666 8.80344 5.79166 7.88678 4.66666 7.88678ZM13.3333 17.8868V13.2201L11.7083 11.5951C11.5 11.3868 11.1666 11.3868 11 11.5951L6.66666 15.8868L5.04166 14.2618C4.83333 14.0534 4.54166 14.0534 4.33333 14.2201L2.70833 15.8868L2.66666 17.8868H13.3333Z" fill="#FFC107"/>
</svg>
