<svg width="16" height="21" viewBox="0 0 16 21" fill="none" xmlns="http://www.w3.org/2000/svg">
<path opacity="0.75" d="M6.88867 20.1094C1.18555 11.9062 0.169922 11.0469 0.169922 8C0.169922 3.85938 3.49023 0.5 7.66992 0.5C11.8105 0.5 15.1699 3.85938 15.1699 8C15.1699 11.0469 14.1152 11.9062 8.41211 20.1094C8.06055 20.6562 7.24023 20.6562 6.88867 20.1094ZM7.66992 11.125C9.38867 11.125 10.7949 9.75781 10.7949 8C10.7949 6.28125 9.38867 4.875 7.66992 4.875C5.91211 4.875 4.54492 6.28125 4.54492 8C4.54492 9.75781 5.91211 11.125 7.66992 11.125Z" fill="white"/>
</svg>
