<svg width="168" height="150" viewBox="0 0 168 150" fill="none" xmlns="http://www.w3.org/2000/svg">
<g clip-path="url(#clip0_1_5)">
<path fill-rule="evenodd" clip-rule="evenodd" d="M85.3927 0.899638C86.9959 5.15899 87.3434 9.80647 86.3225 13.3441C85.4728 16.288 84.3563 18.258 80.9739 22.7809C79.0903 25.2998 78.317 26.4776 77.6981 27.7695C75.3856 32.5979 77.3917 37.4132 84.3286 43.6845L85.1447 44.4226L84.7553 43.7588C81.4253 38.0766 80.4137 29.4685 82.8369 27.4292C84.4993 26.0303 85.6419 31.4691 85.2471 38.9049C85.2072 39.6517 85.1791 40.2732 85.1845 40.2853C85.1896 40.2979 85.4011 39.781 85.6541 39.1365C86.9045 35.9538 88.6173 32.9319 92.2367 27.5207C94.8454 23.6209 95.6527 22.2791 96.2892 20.784C98.9302 14.5824 96.1164 8.98742 86.4366 1.19336C85.0461 0.0734466 85.0859 0.0847757 85.3927 0.899638ZM95.2289 39.7004C92.267 44.2602 91.7983 48.9513 93.7788 54.2118C94.892 57.17 97.9672 63.3192 99.4161 65.4856C100.725 67.4426 103.51 70.9908 103.817 71.094C103.908 71.1246 110.672 61.5162 110.64 61.4012C110.626 61.3475 109.584 59.7606 108.327 57.8754C105.507 53.6483 102.008 48.3215 98.5761 43.0303C97.1414 40.8191 95.9296 38.9678 95.8826 38.917C95.8361 38.8662 95.5419 39.2187 95.2289 39.7004ZM72.4115 39.2443C72.3012 39.4025 71.4208 40.7536 70.4549 42.2474C66.7746 47.9388 62.5362 54.3662 56.6123 63.2404C51.0296 71.6038 48.2229 75.7625 34.4092 96.1399C22.1842 114.174 10.0175 132.516 8.69788 134.902C8.09575 135.991 7.46342 137.357 6.38337 139.901C4.73099 143.794 4.23712 144.683 2.91664 146.141C1.78876 147.386 0.822419 148.632 0.323515 149.484L0.0939941 149.875H83.9241H167.754L167.47 149.379C167.047 148.638 166.178 147.33 165.406 146.272C164.516 145.053 163.451 142.96 162.002 139.588C159.986 134.892 160.18 135.217 151.942 122.72C147.042 115.287 139.581 104.175 131.486 92.2573L129.204 88.8972L126.112 90.7631C124.412 91.7895 122.997 92.653 122.968 92.6815C122.849 92.8011 129.256 103.436 132.291 108.156C136.695 115.004 139.285 118.677 142.681 122.895C146.232 127.306 147.213 129.156 147.85 132.643C148.241 134.784 148.146 140.064 147.656 143.448L147.536 144.28L147.066 144.416C143.773 145.371 139.979 144.826 135.055 142.694C133.992 142.233 132.394 141.54 131.504 141.154C122.83 137.387 117.254 137.499 104.505 141.694C93.9726 145.16 87.9522 146.319 81.7254 146.079C76.8236 145.89 74.0551 145.168 66.7541 142.175C59.0359 139.011 56.0929 138.335 50.0381 138.335C45.4267 138.335 43.2213 138.666 36.5652 140.36C29.3501 142.196 26.2384 142.578 22.0806 142.136C20.4437 141.961 20.5381 142.206 20.4152 137.812C20.2301 131.206 21.1033 128.826 25.9342 122.773C31.1683 116.214 36.5324 108.106 43.7084 95.9045C48.4537 87.836 48.6991 87.528 57.2405 78.9057C64.8789 71.1951 67.4116 68.2818 69.7047 64.5692C70.6714 63.0037 73.659 56.8834 74.5104 54.7237C76.6625 49.2643 76.2475 44.5208 73.2008 39.7667C72.602 38.8323 72.6687 38.8763 72.4115 39.2443ZM112.077 72.0305C110.325 74.0643 108.825 75.8237 108.744 75.9408C108.607 76.1367 110.947 78.75 111.259 78.75C111.299 78.75 112.788 77.2399 114.568 75.3941L117.805 72.0377L116.596 70.2502C115.93 69.2666 115.358 68.4333 115.324 68.3977C115.29 68.362 113.829 69.9967 112.077 72.0305ZM118.99 80.9571L115.937 83.5737L116.855 84.5824C117.635 85.4376 119.078 87.0866 119.137 87.189C119.165 87.2381 124.972 82.9259 125.007 82.8306C125.028 82.7706 122.3 78.6321 122.062 78.3627C122.051 78.3505 120.669 79.5183 118.99 80.9571ZM96.1302 79.0832C96.0048 79.2732 95.8357 79.7184 95.7547 80.0722C95.4903 81.229 94.6612 82.0279 93.6953 82.0573C93.3793 82.0669 93.0386 82.0787 92.9383 82.0833C92.5317 82.103 91.0841 83.7923 91.0841 84.2476C91.0841 84.6974 91.8734 84.5094 92.6349 83.8779C93.3008 83.3257 93.4758 83.2498 94.3285 83.1428C95.3149 83.019 95.664 82.6569 96.0996 81.3087C96.1734 81.0792 96.439 80.449 96.6895 79.9089C97.1968 78.8146 97.1956 78.8658 96.7109 78.7915C96.4009 78.7437 96.3312 78.7785 96.1302 79.0832ZM62.4011 81.6469L61.9698 81.8127L62.3223 82.8587C62.637 83.7936 62.6579 83.9232 62.5186 84.0772C62.2971 84.3219 62.3239 84.6806 62.6235 85.4766C62.916 86.2533 62.9491 86.8957 62.775 88.4109C62.7154 88.9278 62.6965 89.5262 62.7326 89.7406L62.7981 90.1304L63.0973 89.9755C63.5555 89.7385 65.3975 89.7603 65.7013 90.0062C65.9837 90.2349 65.8859 90.3456 64.9212 90.8894L64.2948 91.2427V91.7983C64.2948 92.5817 64.1186 92.6731 63.3427 92.2926C62.5895 91.9229 62.3588 92.0022 61.6941 92.8582C61.194 93.5019 61.0274 93.5715 60.5868 93.3197C59.7904 92.8645 58.8211 93.2325 58.1514 94.2446C57.5439 95.1631 55.6145 96.2859 54.631 96.2943C54.1027 96.2985 53.6819 95.7815 53.3735 94.7493C53.1851 94.1182 53.0634 94.3893 52.9631 95.6628C52.8364 97.2783 52.4969 97.653 50.5861 98.2895C49.3969 98.686 48.0357 99.5558 46.9742 100.599C46.1945 101.365 46.2256 101.264 46.4417 102.328C46.6313 103.26 45.5546 103.727 45.3243 102.812C45.1636 102.174 44.9869 102.214 44.0038 103.111C43.4764 103.593 42.719 104.128 41.9243 104.582C40.3655 105.471 39.6312 106.05 39.1239 106.786L38.7282 107.361L39.1155 107.79C39.4898 108.204 39.4973 108.227 39.3353 108.475C39.1159 108.81 39.1427 108.841 40.039 109.284C42.0904 110.298 42.7064 110.33 43.4583 109.466C44.2891 108.511 45.2551 108.2 47.3749 108.208C48.854 108.214 49.754 108.829 51.5436 111.059C52.8171 112.646 53.5858 113.221 55.4165 113.954C56.3698 114.335 56.2888 114.341 56.888 113.846C58.9655 112.129 62.9806 115.08 63.777 118.908C64.1924 120.907 64.017 123.014 63.4031 123.402C62.4343 124.013 62.0655 125.482 62.4695 127.118C62.6013 127.65 62.7129 128.309 62.7184 128.582C62.7238 128.855 62.7561 129.046 62.7905 129.007C63.6406 128.032 86.6242 95.3452 86.6099 95.1324C86.5982 94.9524 86.7152 94.7082 86.9452 94.4325C87.9912 93.1809 87.3644 92.1487 85.9919 92.862C85.0595 93.3466 84.8178 93.3437 84.8178 92.8477C84.8178 92.3643 85.0574 91.9917 85.6763 91.5146C86.8936 90.5756 87.0404 90.0721 85.9495 90.5781C85.2626 90.897 84.8946 91.1903 83.2968 92.6903C81.9599 93.9462 81.4694 94.2244 81.0901 93.9429C80.5895 93.5711 82.7353 91.0741 83.5557 91.0741C83.8041 91.0741 84.0092 90.7447 83.9148 90.4975C83.8779 90.4019 83.9102 89.9936 83.9862 89.5899L84.1246 88.8561L83.5573 88.3215C82.8952 87.6984 82.8793 87.6988 82.0371 88.3689C81.4266 88.8548 81.3616 88.8808 80.7611 88.8808H80.1288L79.3248 87.5402L78.5205 86.1992L76.5156 86.0821L74.5112 85.965L72.8496 85.2127C71.133 84.436 69.81 83.6274 68.8718 82.7824L68.3313 82.2956L66.1196 82.2293L63.9083 82.1626L63.4913 81.8143C63.0209 81.4212 62.997 81.4174 62.4011 81.6469ZM87.6526 83.979C87.4735 84.9978 87.2225 85.1569 86.7568 84.5463C86.4249 84.1108 84.916 83.9602 84.9273 84.3638C84.9479 85.0801 85.4048 86.0095 85.7615 86.0611C86.0804 86.1068 86.14 86.1664 86.2654 86.5621C86.4345 87.0971 86.5625 87.082 86.8927 86.4887L87.1403 86.0443L87.4982 86.3909C87.9442 86.8231 88.3038 87.4307 88.6349 88.3102C88.9932 89.2622 88.9802 89.3709 88.5392 89.0982C87.9761 88.7503 87.8985 88.8955 88.2644 89.6122C88.3794 89.8371 88.4734 90.1627 88.4734 90.3351C88.4734 90.5076 88.3794 90.8873 88.2644 91.1785C88.0177 91.8046 87.9971 92.2535 88.2069 92.4277C88.4847 92.658 88.702 92.4919 89.3633 91.5444L90.0196 90.6041L89.5047 89.2987C88.4234 86.5571 88.2648 86.0145 88.2585 85.0327C88.2485 83.5066 87.8561 82.8243 87.6526 83.979ZM92.183 95.145C91.8855 95.474 93.3147 97.4545 93.6252 97.144C93.8287 96.9405 93.8279 96.9367 93.5153 96.5393C93.342 96.3195 93.0126 95.8705 92.7827 95.5415C92.3761 94.9591 92.3605 94.9491 92.183 95.145ZM79.5867 109.738C65.4017 126.197 64.2444 127.545 64.6309 127.159C64.8038 126.987 70.8095 120.759 77.9767 113.32C85.1443 105.882 91.3766 99.4191 91.826 98.9596L92.6438 98.1242L92.1453 97.3932C91.7034 96.7454 91.6044 96.6585 91.2784 96.6304L90.91 96.5993L79.5867 109.738ZM96.28 100.441C96.1155 100.605 96.1327 100.65 96.5544 101.146C96.802 101.437 97.183 101.945 97.4012 102.276C97.7872 102.86 97.9953 102.997 98.1405 102.762C98.2102 102.649 96.6728 100.265 96.5301 100.265C96.489 100.265 96.3765 100.344 96.28 100.441ZM121.306 100.712C121.03 100.928 120.903 100.944 119.474 100.944H117.938L117.536 101.336C117.222 101.642 117.051 101.727 116.756 101.727C116.383 101.727 116.375 101.737 116.051 102.537C115.466 103.981 115.399 104.11 115.086 104.409C114.533 104.94 112.876 104.684 111.684 103.884C111.113 103.502 111.057 103.2 111.398 102.343C111.632 101.754 111.562 101.519 111.153 101.519C110.65 101.519 110.177 102.174 109.154 104.285C108.203 106.246 108.063 106.427 107.502 106.427C107.333 106.427 106.683 106.682 106.057 106.992C104.218 107.905 103.557 107.85 101.802 106.632C100.926 106.026 100.588 105.922 100.588 106.259C100.588 106.491 101.598 107.323 102.374 107.73C103.276 108.205 103.396 108.346 103.136 108.633C102.982 108.803 102.855 108.839 102.547 108.798C102.202 108.751 102.123 108.785 101.891 109.074C101.583 109.459 101.383 109.323 101.255 108.644C101.172 108.201 100.844 108.044 99.8051 107.946C99.4031 107.908 98.8815 107.809 98.6457 107.724L98.2177 107.571L81.0473 117.9L63.8769 128.229L62.9198 129.185C62.1229 129.981 61.8607 130.176 61.3584 130.349C60.4756 130.653 60.2415 130.83 60.3187 131.137C60.4022 131.469 60.1231 131.479 59.7698 131.154L59.5139 130.919L59.5701 131.36C59.6456 131.952 60.0031 132.502 60.4668 132.739C60.6766 132.846 61.0211 133.127 61.2321 133.363C61.6605 133.841 61.6996 133.848 62.9332 133.67C64.0397 133.509 64.3716 133.641 64.4559 134.272C64.7035 136.12 67.4275 137.288 69.8759 136.597C70.4314 136.44 70.9899 136.371 71.7586 136.362L72.8517 136.35L72.9675 135.938C73.1127 135.423 73.2222 135.386 73.6183 135.719C74.0752 136.104 74.225 136.061 74.3648 135.505L74.4856 135.026L75.0076 135.098C75.6533 135.187 76.4623 134.528 76.4623 133.913C76.4623 133.52 76.6209 133.425 77.4425 133.325C78.2519 133.227 78.5075 132.977 78.6061 132.186C78.6896 131.52 78.7429 131.494 79.4759 131.774C80.078 132.004 80.3268 131.765 80.3268 130.954C80.3268 130.394 80.4771 130.031 81.0183 129.287C81.5756 128.521 81.7841 127.967 81.7866 127.245C81.79 126.286 82.5767 125.722 84.8698 125.034C86.471 124.554 86.8013 124.417 87.2632 124.04C87.7898 123.609 88.1784 123.406 88.786 123.243C89.044 123.173 89.4368 123.024 89.6583 122.911C89.8799 122.798 90.3498 122.659 90.7031 122.602C91.0564 122.546 91.7156 122.332 92.1675 122.128L92.9899 121.757L93.8908 122.056C94.7204 122.331 94.8009 122.382 94.9046 122.703C95.3837 124.185 97.0374 122.836 97.0374 120.962C97.0374 120.019 97.0731 119.967 97.9777 119.594C98.7116 119.29 99.106 118.917 99.1912 118.446C99.3842 117.373 100.161 117.122 101.161 117.81C101.851 118.285 101.962 118.245 101.88 117.549C101.801 116.87 101.967 116.603 102.536 116.496C103.044 116.401 103.055 116.282 102.577 116.038C101.624 115.552 102.751 114.04 104.907 112.91C106.738 111.95 111.258 113.358 111.5 114.963C111.681 116.165 111.918 116.432 112.369 115.938C112.715 115.56 113.163 115.41 113.947 115.41C114.503 115.41 114.522 115.399 115.13 114.767L115.746 114.124L117.119 114.19C117.873 114.226 118.897 114.334 119.395 114.43C120.496 114.642 120.649 114.608 121.369 113.993C121.901 113.539 121.965 113.512 122.36 113.58C122.593 113.619 122.926 113.675 123.102 113.704C123.536 113.775 124.238 113.236 124.689 112.485C125.112 111.78 125.111 111.732 124.66 111.428C124.033 111.005 123.734 109.319 124.084 108.177C124.214 107.754 124.215 107.607 124.096 107.185C123.768 106.03 123.883 105.696 124.607 105.696C125.301 105.696 125.446 105.477 125.049 105.024C124.4 104.286 124.962 103.905 126.336 104.15C128.042 104.454 128.901 103.632 127.891 102.662C127.685 102.464 127.45 102.172 127.366 102.015C127.199 101.695 127.03 101.668 126.343 101.851C125.915 101.966 125.85 101.956 125.48 101.713C124.884 101.323 124.742 101.294 124.078 101.424C123.342 101.569 123.095 101.515 122.565 101.093C121.818 100.497 121.646 100.445 121.306 100.712ZM80.3226 114.115C72.3112 120.984 65.6862 126.676 65.6002 126.763C65.4122 126.954 65.4525 126.925 81.6129 114.992C88.6534 109.793 94.4161 105.469 94.4195 105.383C94.4229 105.297 94.2882 105.019 94.1203 104.766L93.8153 104.307L93.8728 104.734C93.9894 105.605 93.6571 106.114 92.9719 106.114C92.34 106.114 91.9934 105.607 92.3966 105.273C92.6144 105.092 92.8145 104.68 92.8985 104.241C92.9962 103.728 93.2098 103.542 93.9949 103.285C95.0615 102.937 95.5 102.237 94.9788 101.716C94.9276 101.665 88.5598 107.052 80.3226 114.115Z" fill="white"/>
<path fill-rule="evenodd" clip-rule="evenodd" d="M90.0625 4.34034C90.276 4.56105 90.4758 4.71672 90.5064 4.68609C90.537 4.65546 90.3625 4.47461 90.1183 4.28453L89.6743 3.93878L90.0625 4.34034ZM97.2829 16.3975C97.2829 16.8859 97.301 17.0857 97.3228 16.8415C97.345 16.5973 97.345 16.1978 97.3228 15.9536C97.301 15.7094 97.2829 15.9091 97.2829 16.3975ZM76.7024 31.6462C76.7024 31.9621 76.7221 32.0914 76.7461 31.9336C76.77 31.7754 76.77 31.5169 76.7461 31.3592C76.7221 31.201 76.7024 31.3302 76.7024 31.6462ZM81.5106 32.4816C81.5106 32.9125 81.5291 33.0888 81.5517 32.8735C81.5744 32.6578 81.5744 32.3054 81.5517 32.0901C81.5291 31.8749 81.5106 32.0511 81.5106 32.4816ZM85.2736 34.8318C85.274 35.4062 85.2916 35.6278 85.3126 35.3244C85.334 35.0206 85.3336 34.5506 85.3122 34.28C85.2908 34.0089 85.2736 34.2574 85.2736 34.8318ZM85.2736 36.9205C85.274 37.495 85.2916 37.7165 85.3126 37.4132C85.334 37.1098 85.3336 36.6398 85.3122 36.3688C85.2908 36.0977 85.2736 36.3461 85.2736 36.9205ZM85.1574 39.7407C85.1586 39.9702 85.18 40.052 85.2052 39.9219C85.2299 39.7923 85.2291 39.6043 85.2027 39.5044C85.1767 39.4046 85.1561 39.5107 85.1574 39.7407ZM81.7842 41.307C82.0339 41.5945 82.3603 41.9427 82.5097 42.0812C82.6591 42.2197 82.9574 42.4991 83.1727 42.7026C83.3883 42.9061 83.5646 43.0509 83.5646 43.0236C83.5646 42.9968 83.0619 42.4819 82.4476 41.8798C81.8333 41.2777 81.5345 41.02 81.7842 41.307ZM84.191 43.6895C84.191 43.7076 84.3438 43.8326 84.5305 43.9673L84.8699 44.2123L84.6169 43.9346C84.4004 43.6975 84.191 43.5771 84.191 43.6895ZM75.862 47.5738C75.8632 47.8037 75.8846 47.8851 75.9094 47.7554C75.9346 47.6254 75.9337 47.4374 75.9073 47.3375C75.8813 47.2377 75.8607 47.3438 75.862 47.5738ZM75.8641 48.8791C75.8641 49.1376 75.8846 49.2433 75.9094 49.1141C75.9341 48.9849 75.9341 48.7734 75.9094 48.6442C75.8846 48.5149 75.8641 48.6207 75.8641 48.8791ZM63.5635 72.3788C63.3986 72.5512 63.3076 72.6897 63.3613 72.6864C63.4532 72.6809 63.9919 72.0658 63.9046 72.0658C63.882 72.0658 63.7288 72.2068 63.5635 72.3788ZM117.218 72.6171C116.918 72.9205 116.673 73.2113 116.673 73.2637C116.673 73.3158 116.774 73.2436 116.898 73.1034C117.023 72.9637 117.29 72.6725 117.494 72.4573C118.055 71.8631 117.838 71.989 117.218 72.6171ZM61.7848 74.2712C61.442 74.6228 61.2142 74.893 61.2784 74.872C61.3925 74.8343 62.5267 73.6321 62.4482 73.6321C62.426 73.6321 62.1276 73.92 61.7848 74.2712ZM114.476 75.4725C114.105 75.8527 113.853 76.1464 113.915 76.125C114.029 76.0868 115.27 74.781 115.193 74.781C115.17 74.781 114.848 75.0923 114.476 75.4725ZM108.527 76.062C108.527 76.1346 109.137 76.8039 109.884 77.5491L111.242 78.904L111.843 78.28L112.443 77.6557L111.841 78.2263L111.24 78.797L109.934 77.4945C109.216 76.7779 108.651 76.1329 108.678 76.0608C108.706 75.989 108.683 75.9299 108.628 75.9299C108.572 75.9299 108.527 75.9894 108.527 76.062ZM94.89 81.4916L94.5832 81.8311L94.9227 81.5244C95.1094 81.3557 95.2621 81.203 95.2621 81.1849C95.2621 81.1039 95.1757 81.1753 94.89 81.4916ZM63.7532 82.0136C63.8627 82.1143 64.0293 82.1936 64.1237 82.1899C64.2319 82.1857 64.2009 82.1458 64.0393 82.0812C63.8988 82.025 63.7322 81.9461 63.6688 81.905C63.6055 81.8643 63.6437 81.9133 63.7532 82.0136ZM93.5661 82.0615C93.6962 82.0866 93.8842 82.0854 93.984 82.0594C94.0839 82.0333 93.9773 82.0128 93.7478 82.014C93.5179 82.0153 93.4361 82.0367 93.5661 82.0615ZM67.243 82.2721C67.4284 82.2952 67.7574 82.2956 67.9739 82.2729C68.1909 82.2503 68.039 82.2314 67.637 82.231C67.235 82.2306 67.0575 82.249 67.243 82.2721ZM68.861 82.7744C69.0171 82.9389 69.1639 83.0521 69.1866 83.0265C69.2096 83.0009 69.0817 82.8663 68.9025 82.7278L68.5769 82.4756L68.861 82.7744ZM52.6493 83.5019C52.3959 83.7604 52.2117 83.9719 52.2402 83.9719C52.2692 83.9719 52.4999 83.7604 52.7538 83.5019C53.0077 83.2435 53.1914 83.032 53.1629 83.032C53.134 83.032 52.9032 83.2435 52.6493 83.5019ZM116.255 84.0046C116.255 84.0227 116.408 84.1754 116.595 84.3441L116.934 84.6508L116.627 84.3114C116.341 83.995 116.255 83.9241 116.255 84.0046ZM62.2988 84.2258C62.2674 84.3076 62.259 84.4838 62.2804 84.6172C62.3093 84.7956 62.3332 84.7561 62.3723 84.4683C62.4268 84.0625 62.3979 83.9673 62.2988 84.2258ZM86.0175 84.154C86.2466 84.1775 86.4946 84.2467 86.5685 84.308C86.6708 84.3932 86.6868 84.3789 86.6369 84.248C86.5873 84.1192 86.4506 84.081 86.0859 84.094L85.6013 84.1116L86.0175 84.154ZM75.3396 86.0284C75.4403 86.0548 75.6048 86.0548 75.705 86.0284C75.8057 86.0023 75.7235 85.9809 75.5225 85.9809C75.3215 85.9809 75.2389 86.0023 75.3396 86.0284ZM77.1686 86.1349C77.2987 86.1597 77.4867 86.1589 77.5865 86.1328C77.6864 86.1064 77.5798 86.0863 77.3503 86.0871C77.1203 86.0884 77.0385 86.1098 77.1686 86.1349ZM83.8255 92.0689C83.5956 92.267 83.4571 92.4298 83.518 92.4306C83.5784 92.4314 83.7874 92.2674 83.9821 92.0664C84.431 91.6036 84.3643 91.6044 83.8255 92.0689ZM91.5021 99.273C91.132 99.6465 90.8664 99.9519 90.9122 99.9519C90.9575 99.9519 91.0502 99.8898 91.1178 99.8139C91.1857 99.7383 91.4744 99.4329 91.7593 99.1354C92.0442 98.8375 92.2545 98.5941 92.2263 98.5941C92.1982 98.5941 91.8722 98.8996 91.5021 99.273ZM120.093 100.967C120.28 100.99 120.585 100.99 120.772 100.967C120.959 100.944 120.806 100.925 120.433 100.925C120.06 100.925 119.907 100.944 120.093 100.967ZM88.679 102.21C88.3073 102.59 88.0505 102.884 88.1076 102.862C88.2217 102.821 89.4738 101.519 89.3999 101.519C89.3752 101.519 89.0508 101.83 88.679 102.21ZM127.43 102.107C127.43 102.162 127.63 102.393 127.874 102.62L128.318 103.033L127.901 102.564C127.671 102.307 127.471 102.076 127.457 102.051C127.442 102.026 127.43 102.051 127.43 102.107ZM85.7578 105.226C85.3877 105.6 85.1221 105.905 85.1678 105.905C85.2132 105.905 85.3059 105.843 85.3735 105.767C85.4414 105.692 85.7301 105.386 86.015 105.089C86.2999 104.791 86.5101 104.547 86.482 104.547C86.4539 104.547 86.1279 104.853 85.7578 105.226ZM125.021 105C125.287 105.293 125.344 105.329 125.338 105.2C125.337 105.157 125.207 105.032 125.051 104.921L124.767 104.721L125.021 105ZM101.932 107.57C102.068 107.688 102.228 107.785 102.289 107.785C102.417 107.785 102.411 107.78 101.999 107.538L101.685 107.355L101.932 107.57ZM82.9347 108.163C82.563 108.543 82.3058 108.837 82.3632 108.816C82.4774 108.774 83.729 107.472 83.6556 107.472C83.6309 107.472 83.3065 107.783 82.9347 108.163ZM104.062 107.648C104.162 107.675 104.326 107.675 104.427 107.648C104.527 107.622 104.445 107.6 104.244 107.6C104.043 107.6 103.961 107.622 104.062 107.648ZM123.908 109.143C123.908 109.401 123.928 109.507 123.953 109.378C123.978 109.249 123.978 109.037 123.953 108.908C123.928 108.779 123.908 108.884 123.908 109.143ZM42.3356 110.155C42.4363 110.181 42.6008 110.181 42.701 110.155C42.8017 110.128 42.7195 110.107 42.5185 110.107C42.3175 110.107 42.2353 110.128 42.3356 110.155ZM80.0366 111.156C79.6791 111.517 79.3866 111.855 79.3866 111.907C79.3866 111.959 79.4882 111.887 79.6119 111.747C79.7357 111.608 80.0513 111.269 80.3131 110.997C80.5749 110.724 80.7658 110.501 80.7377 110.501C80.7092 110.501 80.3941 110.796 80.0366 111.156ZM52.5448 112.328C52.74 112.529 52.9229 112.694 52.9514 112.694C52.9804 112.694 52.8444 112.529 52.6493 112.328C52.4546 112.127 52.2717 111.963 52.2427 111.963C52.2142 111.963 52.3501 112.127 52.5448 112.328ZM77.138 114.168C76.7952 114.52 76.5619 114.79 76.6193 114.769C76.7326 114.727 77.8794 113.529 77.806 113.529C77.7812 113.529 77.4808 113.817 77.138 114.168ZM114.845 115.096C114.741 115.211 114.709 115.305 114.773 115.305C114.837 115.305 114.94 115.211 115.002 115.096C115.063 114.981 115.096 114.887 115.074 114.887C115.052 114.887 114.949 114.981 114.845 115.096ZM113.463 115.484C113.621 115.508 113.856 115.508 113.985 115.483C114.113 115.458 113.983 115.438 113.696 115.439C113.409 115.44 113.304 115.46 113.463 115.484ZM74.2923 117.109C73.9348 117.47 73.6423 117.808 73.6423 117.86C73.6423 117.912 73.7438 117.841 73.8676 117.701C73.9914 117.561 74.3069 117.223 74.5688 116.95C74.8302 116.677 75.0215 116.454 74.9934 116.454C74.9649 116.454 74.6493 116.749 74.2923 117.109ZM98.8556 119.08C98.6575 119.303 98.6575 119.303 98.8917 119.181C99.0209 119.113 99.1267 119.012 99.1267 118.957C99.1267 118.808 99.0763 118.831 98.8556 119.08ZM71.3937 120.122C71.0508 120.473 70.8175 120.743 70.875 120.722C70.9883 120.681 72.1351 119.483 72.0617 119.483C72.0369 119.483 71.7365 119.77 71.3937 120.122ZM63.9617 121.206C63.9621 121.551 63.9819 121.679 64.0049 121.491C64.028 121.304 64.0276 121.022 64.0037 120.865C63.9802 120.708 63.9609 120.861 63.9617 121.206ZM68.6004 123.01C68.2139 123.4 67.898 123.761 67.898 123.813C67.898 123.866 67.9995 123.794 68.1233 123.654C68.2471 123.514 68.5861 123.152 68.8769 122.851C69.1673 122.549 69.3821 122.303 69.354 122.303C69.3254 122.303 68.9864 122.621 68.6004 123.01ZM65.9657 125.749C65.7777 125.945 65.6389 126.02 65.5952 125.949C65.5277 125.84 65.4521 125.943 65.3972 126.219C65.3858 126.277 65.2977 126.413 65.2012 126.522C65.1047 126.63 65.0732 126.701 65.1307 126.678C65.249 126.632 66.3878 125.436 66.314 125.436C66.2876 125.436 66.131 125.577 65.9657 125.749ZM66.027 126.313C65.9288 126.431 65.9313 126.459 66.0383 126.444C66.1827 126.422 66.2758 126.286 66.1982 126.208C66.173 126.183 66.0958 126.23 66.027 126.313ZM65.1748 127.072L64.9213 127.351L65.2054 127.151C65.3615 127.04 65.4907 126.915 65.4924 126.872C65.4979 126.743 65.4408 126.779 65.1748 127.072ZM62.7 128.673C62.7 128.875 62.7218 128.957 62.7478 128.856C62.7743 128.756 62.7743 128.591 62.7478 128.491C62.7218 128.39 62.7 128.473 62.7 128.673ZM63.1448 128.78C63.1087 128.838 63.0281 128.854 62.966 128.816C62.9005 128.775 62.8825 128.794 62.9232 128.86C62.9618 128.923 62.9106 129.021 62.8095 129.077C62.7084 129.134 62.6521 129.207 62.6845 129.239C62.7168 129.271 62.8779 129.158 63.0424 128.986C63.2069 128.814 63.3122 128.673 63.2761 128.673C63.24 128.673 63.1808 128.721 63.1448 128.78ZM63.2765 133.656C63.4057 133.681 63.6172 133.681 63.7465 133.656C63.8757 133.631 63.77 133.611 63.5115 133.611C63.253 133.611 63.1473 133.631 63.2765 133.656ZM20.4006 134.94C20.4006 135.141 20.4224 135.223 20.4484 135.123C20.4749 135.022 20.4749 134.858 20.4484 134.757C20.4224 134.657 20.4006 134.739 20.4006 134.94ZM72.1019 136.474C72.2022 136.501 72.3667 136.501 72.4674 136.474C72.5681 136.448 72.4859 136.427 72.2845 136.427C72.0835 136.427 72.0012 136.448 72.1019 136.474ZM68.0822 136.894C68.2118 136.919 68.3998 136.918 68.4997 136.892C68.5995 136.866 68.4934 136.845 68.2634 136.846C68.0339 136.848 67.9521 136.869 68.0822 136.894ZM20.4048 138.596C20.4048 138.854 20.4254 138.96 20.4501 138.831C20.4753 138.701 20.4753 138.49 20.4501 138.361C20.4254 138.232 20.4048 138.337 20.4048 138.596ZM49.4419 138.255C49.8321 138.276 50.4431 138.276 50.7997 138.255C51.1564 138.235 50.8375 138.219 50.0906 138.219C49.3437 138.219 49.0521 138.235 49.4419 138.255ZM119.105 138.464C119.437 138.485 119.954 138.485 120.254 138.464C120.553 138.443 120.281 138.426 119.65 138.426C119.018 138.426 118.773 138.443 119.105 138.464ZM148.032 138.961C148.033 139.191 148.054 139.273 148.08 139.143C148.104 139.013 148.104 138.825 148.078 138.725C148.052 138.625 148.031 138.732 148.032 138.961ZM142.918 144.835C143.25 144.856 143.767 144.856 144.067 144.835C144.366 144.814 144.094 144.797 143.462 144.797C142.83 144.797 142.585 144.814 142.918 144.835ZM81.4494 146.087C81.6361 146.11 81.9415 146.11 82.1283 146.087C82.315 146.063 82.1623 146.044 81.7888 146.044C81.4154 146.044 81.2626 146.063 81.4494 146.087ZM83.176 146.088C83.4504 146.11 83.8734 146.11 84.1159 146.087C84.3584 146.065 84.1335 146.048 83.6166 146.048C83.0996 146.049 82.9012 146.066 83.176 146.088ZM2.56259 146.455L2.25586 146.794L2.59532 146.488C2.78162 146.319 2.93477 146.166 2.93477 146.148C2.93477 146.068 2.84833 146.138 2.56259 146.455Z" fill="white"/>
<path fill-rule="evenodd" clip-rule="evenodd" d="M89.0999 3.37486C89.0999 3.3929 89.2526 3.54563 89.4393 3.71431L89.7788 4.02104L89.4721 3.68158C89.1859 3.36521 89.0999 3.29429 89.0999 3.37486ZM91.4501 5.63985C91.9645 6.1568 92.4088 6.57976 92.4378 6.57976C92.4663 6.57976 92.069 6.1568 91.5545 5.63985C91.0397 5.12291 90.5953 4.69995 90.5664 4.69995C90.5378 4.69995 90.9352 5.12291 91.4501 5.63985ZM86.8319 8.09451C86.8328 8.38152 86.8529 8.48684 86.8773 8.32781C86.9012 8.1692 86.9003 7.93422 86.8756 7.80583C86.8508 7.67743 86.8311 7.80708 86.8319 8.09451ZM86.8336 9.50436C86.8336 9.82032 86.8529 9.94956 86.8768 9.79137C86.9008 9.6336 86.9008 9.37513 86.8768 9.21694C86.8529 9.05917 86.8336 9.1884 86.8336 9.50436ZM85.1573 33.0561C85.1586 33.286 85.18 33.3678 85.2052 33.2377C85.2299 33.1077 85.2291 32.9197 85.2026 32.8198C85.1766 32.72 85.1561 32.8265 85.1573 33.0561ZM85.1573 39.0093C85.1586 39.2393 85.18 39.3211 85.2052 39.191C85.2299 39.0609 85.2291 38.873 85.2026 38.7731C85.1766 38.6732 85.1561 38.7798 85.1573 39.0093ZM83.5645 43.0631C83.5645 43.0811 83.7173 43.2339 83.904 43.4025L84.2434 43.7093L83.9367 43.3698C83.6505 43.0534 83.5645 42.9825 83.5645 43.0631ZM84.9815 44.3961C85.2043 44.6425 85.261 44.6492 85.2169 44.4243C85.1984 44.329 85.0969 44.2388 84.9916 44.2233C84.8086 44.1964 84.8082 44.2048 84.9815 44.3961ZM92.4764 48.0962C92.4768 48.4981 92.4957 48.6496 92.5184 48.4331C92.541 48.2162 92.5406 47.8872 92.5175 47.7022C92.4944 47.5167 92.476 47.6938 92.4764 48.0962ZM64.1837 71.7784L63.8769 72.1178L64.2164 71.8111C64.4031 71.6424 64.5558 71.4897 64.5558 71.4716C64.5558 71.3911 64.4698 71.462 64.1837 71.7784ZM62.8846 73.1622C62.6311 73.4207 62.4469 73.6322 62.4759 73.6322C62.5044 73.6322 62.7356 73.4207 62.9891 73.1622C63.2429 72.9037 63.4271 72.6923 63.3982 72.6923C63.3696 72.6923 63.1384 72.9037 62.8846 73.1622ZM115.887 74.0761L115.158 74.8335L115.916 74.105C116.619 73.4286 116.72 73.3191 116.644 73.3191C116.628 73.3191 116.287 73.6598 115.887 74.0761ZM57.0878 79.0895L53.1192 83.0845L57.1142 79.1159C59.3117 76.9336 61.1093 75.1356 61.1093 75.1209C61.1093 75.0475 60.7761 75.3764 57.0878 79.0895ZM113.122 76.9222C112.694 77.3532 112.367 77.7056 112.396 77.7056C112.425 77.7056 112.798 77.3532 113.226 76.9222C113.654 76.4913 113.981 76.1388 113.952 76.1388C113.923 76.1388 113.55 76.4913 113.122 76.9222ZM64.6368 82.1689C64.8827 82.1907 65.2587 82.1903 65.4727 82.1681C65.6862 82.1458 65.4853 82.1274 65.0258 82.1278C64.5663 82.1282 64.3914 82.1467 64.6368 82.1689ZM51.9658 84.3114L51.5529 84.7553L51.9964 84.3424C52.4093 83.9585 52.4886 83.8679 52.4093 83.8679C52.3925 83.8679 52.1928 84.0676 51.9658 84.3114ZM116.986 84.8598C117.181 85.0608 117.364 85.2253 117.393 85.2253C117.422 85.2253 117.286 85.0608 117.091 84.8598C116.896 84.6588 116.713 84.4943 116.684 84.4943C116.655 84.4943 116.791 84.6588 116.986 84.8598ZM76.0197 86.0305C76.1498 86.0552 76.3378 86.0544 76.4376 86.0284C76.5375 86.0019 76.4309 85.9818 76.2014 85.9831C75.9715 85.9839 75.8896 86.0053 76.0197 86.0305ZM77.8995 86.135C78.0296 86.1597 78.2176 86.1589 78.3174 86.1329C78.4173 86.1064 78.3111 86.0863 78.0812 86.0871C77.8513 86.0884 77.7699 86.1098 77.8995 86.135ZM62.8044 87.21C62.8044 87.411 62.8258 87.4932 62.8523 87.3925C62.8787 87.2922 62.8787 87.1277 62.8523 87.027C62.8258 86.9267 62.8044 87.009 62.8044 87.21ZM80.407 88.8523C80.5946 88.8754 80.8766 88.8749 81.0335 88.851C81.1904 88.8271 81.0369 88.8082 80.6924 88.8086C80.3475 88.8095 80.2191 88.8288 80.407 88.8523ZM63.5908 89.895C63.7208 89.9197 63.9088 89.9189 64.0087 89.8925C64.1085 89.8665 64.0024 89.8459 63.7724 89.8472C63.5429 89.8484 63.4611 89.8698 63.5908 89.895ZM82.7257 93.1368L82.0502 93.8422L82.7551 93.1662C83.1428 92.7944 83.46 92.4772 83.46 92.4613C83.46 92.384 83.3535 92.4822 82.7257 93.1368ZM52.888 95.6175C52.8889 95.9049 52.909 96.0098 52.9334 95.8512C52.9573 95.6922 52.9564 95.4572 52.9317 95.3288C52.9069 95.2004 52.8872 95.3305 52.888 95.6175ZM90.1443 100.735C89.7163 101.166 89.3898 101.519 89.4184 101.519C89.4473 101.519 89.8208 101.166 90.2487 100.735C90.6767 100.304 91.0032 99.9519 90.9746 99.9519C90.9461 99.9519 90.5723 100.304 90.1443 100.735ZM46.905 100.526C46.6511 100.785 46.4673 100.996 46.4959 100.996C46.5248 100.996 46.7556 100.785 47.0095 100.526C47.2633 100.268 47.4471 100.056 47.4186 100.056C47.3896 100.056 47.1588 100.268 46.905 100.526ZM118.528 100.863C118.716 100.886 118.998 100.886 119.155 100.862C119.312 100.838 119.159 100.819 118.814 100.82C118.469 100.821 118.341 100.84 118.528 100.863ZM117.503 101.283L117.143 101.675L117.56 101.31C117.789 101.109 117.996 100.932 118.021 100.918C118.046 100.904 118.02 100.892 117.964 100.892C117.908 100.892 117.701 101.068 117.503 101.283ZM116.322 101.703C116.295 101.747 116.456 101.766 116.682 101.744C116.907 101.723 117.091 101.687 117.091 101.664C117.091 101.586 116.372 101.623 116.322 101.703ZM43.977 103.059L43.4064 103.66L44.0068 103.089C44.5644 102.558 44.6551 102.459 44.5775 102.459C44.5611 102.459 44.2909 102.729 43.977 103.059ZM87.1651 103.842L86.4367 104.599L87.1936 103.871C87.8973 103.195 87.9989 103.085 87.9221 103.085C87.9061 103.085 87.5654 103.426 87.1651 103.842ZM84.3999 106.689C83.972 107.119 83.6455 107.472 83.674 107.472C83.703 107.472 84.0764 107.119 84.5044 106.689C84.9324 106.258 85.2589 105.905 85.2303 105.905C85.2014 105.905 84.8279 106.258 84.3999 106.689ZM46.8299 108.28C47.1043 108.302 47.5272 108.301 47.7698 108.279C48.0123 108.257 47.7874 108.239 47.2704 108.24C46.7535 108.24 46.555 108.258 46.8299 108.28ZM48.9937 108.549C48.9937 108.567 49.1465 108.719 49.3332 108.888L49.6726 109.195L49.3659 108.856C49.0802 108.539 48.9937 108.468 48.9937 108.549ZM81.4204 109.796L80.6924 110.553L81.4493 109.825C82.1526 109.148 82.2545 109.038 82.1777 109.038C82.1618 109.038 81.8211 109.379 81.4204 109.796ZM50.3474 109.796C50.6033 110.068 50.8265 110.292 50.8433 110.292C50.9218 110.292 50.8387 110.198 50.3776 109.765L49.8816 109.299L50.3474 109.796ZM78.5512 112.746C78.1232 113.177 77.7967 113.529 77.8252 113.529C77.8542 113.529 78.2276 113.177 78.6556 112.746C79.0836 112.315 79.4101 111.963 79.3815 111.963C79.3526 111.963 78.9791 112.315 78.5512 112.746ZM124.187 113.19L123.827 113.582L124.219 113.222C124.583 112.887 124.658 112.798 124.579 112.798C124.561 112.798 124.385 112.975 124.187 113.19ZM116.231 114.232C116.419 114.255 116.701 114.254 116.858 114.231C117.015 114.207 116.861 114.188 116.516 114.189C116.172 114.189 116.043 114.209 116.231 114.232ZM120.041 114.646C120.142 114.672 120.306 114.672 120.407 114.646C120.507 114.619 120.425 114.598 120.224 114.598C120.023 114.598 119.94 114.619 120.041 114.646ZM75.6761 115.749L74.9481 116.506L75.705 115.778C76.4083 115.101 76.5102 114.992 76.4334 114.992C76.4175 114.992 76.0768 115.332 75.6761 115.749ZM72.8068 118.699C72.3788 119.13 72.0524 119.483 72.0809 119.483C72.1099 119.483 72.4833 119.13 72.9113 118.699C73.3393 118.269 73.6658 117.916 73.6372 117.916C73.6083 117.916 73.2348 118.269 72.8068 118.699ZM70.0912 121.519C69.6632 121.95 69.3368 122.303 69.3653 122.303C69.3942 122.303 69.7677 121.95 70.1957 121.519C70.6237 121.088 70.9505 120.736 70.9216 120.736C70.893 120.736 70.5192 121.088 70.0912 121.519ZM97.0676 121.31C97.0681 121.598 97.0886 121.703 97.1125 121.544C97.1365 121.385 97.136 121.15 97.1113 121.022C97.0861 120.893 97.0668 121.023 97.0676 121.31ZM67.0625 124.652C66.6345 125.083 66.3081 125.436 66.3366 125.436C66.3652 125.436 66.739 125.083 67.167 124.652C67.595 124.222 67.9214 123.869 67.8929 123.869C67.864 123.869 67.4905 124.222 67.0625 124.652ZM65.6959 126.543C65.5788 126.685 65.442 127.091 65.5473 126.986C65.5667 126.967 65.575 126.92 65.5654 126.883C65.5557 126.846 65.6376 126.716 65.7471 126.596C65.8566 126.475 65.9208 126.376 65.8902 126.376C65.86 126.376 65.7723 126.451 65.6959 126.543ZM64.9238 126.896C64.821 127.009 64.7023 127.081 64.6603 127.055C64.5634 126.995 64.2214 127.365 64.3007 127.444C64.3729 127.516 63.8119 127.925 63.6684 127.905C63.6109 127.897 63.5639 127.985 63.5639 128.099C63.5635 128.217 63.5035 128.295 63.4254 128.28C63.3491 128.264 63.3172 128.299 63.3537 128.358C63.3902 128.418 63.3495 128.494 63.2631 128.527C63.177 128.56 63.0277 128.707 62.9311 128.854C62.7713 129.098 62.7927 129.091 63.1796 128.781C63.4124 128.593 63.6289 128.372 63.6608 128.289C63.6927 128.206 63.7645 128.166 63.8203 128.201C63.8761 128.235 64.0171 128.168 64.1341 128.051C64.2512 127.934 64.3486 127.873 64.3502 127.917C64.3519 127.959 64.4018 127.912 64.461 127.81C64.5202 127.708 64.62 127.656 64.683 127.695C64.7543 127.739 64.7669 127.717 64.717 127.636C64.6591 127.543 64.6049 127.539 64.5231 127.62C64.4606 127.682 64.362 127.734 64.3041 127.734C64.2458 127.734 64.4295 127.499 64.7123 127.212C64.9956 126.924 65.2008 126.689 65.1684 126.689C65.1366 126.689 65.0262 126.782 64.9238 126.896ZM81.8131 127.003C81.8131 127.204 81.8345 127.286 81.861 127.185C81.8874 127.085 81.8874 126.92 81.861 126.82C81.8345 126.719 81.8131 126.802 81.8131 127.003ZM64.9033 127.231C64.7635 127.386 64.7543 127.451 64.8584 127.553C64.9297 127.624 64.9796 127.635 64.9687 127.577C64.91 127.267 64.9712 127.184 65.1563 127.326C65.257 127.403 65.3044 127.424 65.2616 127.374C65.2192 127.324 65.2301 127.228 65.2864 127.16C65.4609 126.949 65.0971 127.017 64.9033 127.231ZM80.355 130.971C80.355 131.23 80.3756 131.335 80.4003 131.206C80.4255 131.077 80.4255 130.866 80.4003 130.736C80.3756 130.607 80.355 130.713 80.355 130.971ZM78.6573 131.781C78.6581 131.894 78.6884 131.92 78.7354 131.849C78.7777 131.786 78.8826 131.707 78.9691 131.674C79.0736 131.634 79.0475 131.612 78.8906 131.607C78.7328 131.601 78.6561 131.658 78.6573 131.781ZM61.8154 133.865C61.9455 133.89 62.1335 133.889 62.2334 133.863C62.3332 133.837 62.2266 133.817 61.9971 133.818C61.7672 133.819 61.6854 133.84 61.8154 133.865ZM148.037 135.358C148.037 135.674 148.057 135.803 148.08 135.645C148.104 135.487 148.104 135.229 148.08 135.071C148.057 134.913 148.037 135.042 148.037 135.358ZM20.4182 136.716C20.4182 137.549 20.4341 137.89 20.4538 137.473C20.474 137.057 20.474 136.375 20.4538 135.959C20.4341 135.542 20.4182 135.883 20.4182 136.716ZM148.037 138.073C148.037 138.389 148.057 138.519 148.08 138.361C148.104 138.203 148.104 137.944 148.08 137.786C148.057 137.628 148.037 137.757 148.037 138.073ZM48.0815 138.253C48.2401 138.277 48.4751 138.276 48.6035 138.251C48.7319 138.227 48.6023 138.207 48.3148 138.208C48.0278 138.208 47.9225 138.229 48.0815 138.253ZM51.6326 138.253C51.7912 138.277 52.0262 138.276 52.1546 138.251C52.283 138.227 52.1533 138.207 51.8659 138.208C51.5789 138.208 51.4736 138.229 51.6326 138.253ZM117.9 138.461C118.029 138.485 118.241 138.485 118.37 138.461C118.499 138.436 118.393 138.415 118.135 138.415C117.876 138.415 117.771 138.436 117.9 138.461ZM120.93 138.461C121.06 138.486 121.248 138.485 121.348 138.459C121.448 138.433 121.341 138.412 121.112 138.413C120.882 138.415 120.8 138.436 120.93 138.461ZM147.926 139.954C147.926 140.155 147.947 140.237 147.973 140.136C147.999 140.036 147.999 139.871 147.973 139.771C147.947 139.67 147.926 139.753 147.926 139.954ZM23.2761 142.221C23.4057 142.245 23.5937 142.245 23.6936 142.219C23.7934 142.193 23.6873 142.172 23.4578 142.173C23.2278 142.174 23.146 142.196 23.2761 142.221ZM26.3559 142.219C26.4562 142.245 26.6207 142.245 26.7214 142.219C26.8221 142.193 26.7399 142.171 26.5385 142.171C26.3375 142.171 26.2552 142.193 26.3559 142.219ZM3.2444 145.672L2.67333 146.272L3.27378 145.701C3.60442 145.387 3.87464 145.117 3.87464 145.101C3.87464 145.023 3.77478 145.114 3.2444 145.672ZM85.1061 145.981C85.2362 146.005 85.4242 146.005 85.5241 145.979C85.6239 145.952 85.5173 145.932 85.2878 145.933C85.0579 145.934 84.9765 145.956 85.1061 145.981ZM0.0101318 149.902C0.0101318 149.945 37.7858 149.968 83.956 149.954C130.126 149.94 154.225 149.916 137.509 149.902C55.6222 149.831 0.0101318 149.831 0.0101318 149.902Z" fill="white"/>
</g>
<defs>
<clipPath id="clip0_1_5">
<rect width="167.84" height="149.98" fill="white" transform="translate(0.0101318)"/>
</clipPath>
</defs>
</svg>
