<svg width="110" height="1194" viewBox="0 0 110 1194" fill="none" xmlns="http://www.w3.org/2000/svg">
<path d="M2 0.499994L7.25 0.499994L7.25 2.14999C7.25 3.74999 7.5 5.24999 8 6.64999C8.5 8.14999 9.3 9.29999 10.4 10.1C11.5 11 13 11.45 14.9 11.45L98.15 11.45C99.55 11.45 100.6 11 101.3 10.1C102.1 9.3 102.6 8.15 102.8 6.65C103.1 5.25 103.25 3.75 103.25 2.15L103.25 0.499999L108.5 0.499999L108.5 40.85L23.75 65.6L23.75 62.75L108.5 89.9L108.5 129.5L103.25 129.5L103.25 128.3C103.25 126.6 103.1 125 102.8 123.5C102.6 122 102.1 120.8 101.3 119.9C100.6 119 99.55 118.55 98.15 118.55L12.35 118.55C11.05 118.55 9.99999 118.95 9.19999 119.75C8.39999 120.65 7.84999 121.85 7.54999 123.35C7.34999 124.95 7.24999 126.6 7.24999 128.3L7.24999 129.5L1.99999 129.5L2 83.6L7.25 83.6L7.25 84.95C7.25 86.35 7.3 87.8 7.4 89.3C7.5 90.8 7.65 92.05 7.85 93.05C8.15 94.05 8.45 94.55 8.75 94.55L107 94.55L106.7 96.35L1.85 63.2L1.85 50L106.55 16.85L106.85 18.8L10.85 18.8C9.95 18.8 9.2 19.2 8.6 20C8.1 20.8 7.75 21.9 7.55 23.3C7.35 24.8 7.25 26.4 7.25 28.1L7.25 30.05L2 30.05L2 0.499994ZM44 236.588L44 277.688L37.85 277.838L37.85 234.338L44 236.588ZM94.7 253.988L95 258.188L9.94999 228.788C9.44999 228.788 8.99999 229.038 8.59999 229.538C8.19999 230.038 7.84999 230.888 7.54999 232.088C7.34999 233.288 7.24999 234.938 7.24999 237.038L7.24999 240.338L1.99999 240.338L1.99999 213.038L7.24999 213.038L7.24999 213.938C7.24999 216.038 7.79999 217.838 8.89999 219.338C10.1 220.938 12 222.188 14.6 223.088L108.5 255.938L108.5 273.488L11.9 307.388C9.99999 308.088 8.74999 309.088 8.14999 310.388C7.54999 311.788 7.24999 313.438 7.24999 315.338L7.24999 316.088L1.99999 316.088L1.99999 273.038L7.24999 273.038L7.24999 275.288C7.24999 276.688 7.29999 278.038 7.39999 279.338C7.49999 280.638 7.64999 281.738 7.84999 282.638C8.14999 283.538 8.44999 283.988 8.74999 283.988L94.7 253.988ZM6.94998 443.882C6.94998 448.282 7.54998 452.082 8.74998 455.282C9.94998 458.582 11.9 461.132 14.6 462.932C17.3 464.732 20.8 465.632 25.1 465.632C28.4 465.632 31.15 464.882 33.35 463.382C35.55 461.882 37.4 459.782 38.9 457.082C40.4 454.482 41.75 451.332 42.95 447.632C44.25 443.932 45.6 439.932 47 435.632C48.2 431.732 49.6 427.932 51.2 424.232C52.9 420.632 54.95 417.382 57.35 414.482C59.85 411.582 62.95 409.232 66.65 407.432C70.35 405.732 74.8 404.882 80 404.882C86.3 404.882 91.65 406.432 96.05 409.532C100.55 412.732 104 416.932 106.4 422.132C108.8 427.432 110 433.232 110 439.532C110 445.532 109.1 450.682 107.3 454.982C105.6 459.282 103.2 462.832 100.1 465.632C97 468.432 93.35 470.682 89.15 472.382L92.75 466.982L108.5 468.932L108.5 475.382L80.9 475.382L80.9 469.232C85.6 468.032 89.65 466.132 93.05 463.532C96.45 460.932 99.05 457.782 100.85 454.082C102.65 450.382 103.55 446.282 103.55 441.782C103.55 437.682 102.9 434.182 101.6 431.282C100.4 428.482 98.65 426.332 96.35 424.832C94.05 423.432 91.25 422.732 87.95 422.732C84.75 422.732 82.05 423.432 79.85 424.832C77.65 426.332 75.8 428.332 74.3 430.832C72.8 433.432 71.5 436.382 70.4 439.682C69.4 442.982 68.35 446.582 67.25 450.482C66.05 454.782 64.65 458.882 63.05 462.782C61.45 466.782 59.4 470.382 56.9 473.582C54.5 476.782 51.45 479.282 47.75 481.082C44.15 482.982 39.65 483.932 34.25 483.932C27.45 483.932 21.5 482.282 16.4 478.982C11.3 475.682 7.34998 471.132 4.54998 465.332C1.84998 459.632 0.49998 453.032 0.49998 445.532C0.499981 439.532 1.34998 433.982 3.04998 428.882C4.84998 423.782 7.54998 419.382 11.15 415.682C14.75 412.082 19.3 409.332 24.8 407.432L19.55 411.932L1.99998 410.132L1.99998 403.382L34.4 403.382L34.4 409.982C28.2 411.882 23.05 414.382 18.95 417.482C14.85 420.682 11.8 424.482 9.79998 428.882C7.89998 433.282 6.94998 438.282 6.94998 443.882ZM6.94997 611.824C6.94997 616.224 7.54997 620.024 8.74997 623.224C9.94997 626.524 11.9 629.074 14.6 630.874C17.3 632.674 20.8 633.574 25.1 633.574C28.4 633.574 31.15 632.824 33.35 631.324C35.55 629.824 37.4 627.724 38.9 625.024C40.4 622.424 41.75 619.274 42.95 615.574C44.25 611.874 45.6 607.874 47 603.574C48.2 599.674 49.6 595.874 51.2 592.174C52.9 588.574 54.95 585.324 57.35 582.424C59.85 579.524 62.95 577.174 66.65 575.374C70.35 573.674 74.8 572.824 80 572.824C86.3 572.824 91.65 574.374 96.05 577.474C100.55 580.674 104 584.874 106.4 590.074C108.8 595.374 110 601.174 110 607.474C110 613.474 109.1 618.624 107.3 622.924C105.6 627.224 103.2 630.774 100.1 633.574C97 636.374 93.35 638.624 89.15 640.324L92.75 634.924L108.5 636.874L108.5 643.324L80.9 643.324L80.9 637.174C85.6 635.974 89.65 634.074 93.05 631.474C96.45 628.874 99.05 625.724 100.85 622.024C102.65 618.324 103.55 614.224 103.55 609.724C103.55 605.624 102.9 602.124 101.6 599.224C100.4 596.424 98.65 594.274 96.35 592.774C94.05 591.374 91.25 590.674 87.95 590.674C84.75 590.674 82.05 591.374 79.85 592.774C77.65 594.274 75.8 596.274 74.3 598.774C72.8 601.374 71.5 604.324 70.4 607.624C69.4 610.924 68.35 614.524 67.25 618.424C66.05 622.724 64.65 626.824 63.05 630.724C61.45 634.724 59.4 638.324 56.9 641.524C54.5 644.724 51.45 647.224 47.75 649.024C44.15 650.924 39.65 651.874 34.25 651.874C27.45 651.874 21.5 650.224 16.4 646.924C11.3 643.624 7.34997 639.074 4.54997 633.274C1.84997 627.574 0.499973 620.974 0.499973 613.474C0.499973 607.474 1.34997 601.924 3.04997 596.824C4.84997 591.724 7.54997 587.324 11.15 583.624C14.75 580.024 19.3 577.274 24.8 575.374L19.55 579.874L1.99997 578.074L1.99997 571.324L34.4 571.324L34.4 577.924C28.2 579.824 23.05 582.324 18.95 585.424C14.85 588.624 11.8 592.424 9.79997 596.824C7.89997 601.224 6.94997 606.224 6.94997 611.824ZM44 756.379L44 797.479L37.85 797.629L37.85 754.129L44 756.379ZM94.7 773.779L95 777.979L9.94997 748.579C9.44997 748.579 8.99997 748.829 8.59997 749.329C8.19997 749.829 7.84997 750.679 7.54997 751.879C7.34997 753.079 7.24997 754.729 7.24997 756.829L7.24997 760.129L1.99997 760.129L1.99997 732.829L7.24997 732.829L7.24997 733.729C7.24997 735.829 7.79997 737.629 8.89997 739.129C10.1 740.729 12 741.979 14.6 742.879L108.5 775.729L108.5 793.279L11.9 827.179C9.99996 827.879 8.74996 828.879 8.14996 830.179C7.54996 831.579 7.24996 833.229 7.24996 835.129L7.24996 835.879L1.99996 835.879L1.99997 792.829L7.24997 792.829L7.24997 795.079C7.24997 796.479 7.29997 797.829 7.39997 799.129C7.49996 800.429 7.64996 801.529 7.84996 802.429C8.14997 803.329 8.44997 803.779 8.74996 803.779L94.7 773.779ZM45.2 1014.65L17.9 1014.65C16.2 1013.15 14.3 1011 12.2 1008.2C10.2 1005.4 8.29996 1002.1 6.49996 998.296C4.69996 994.496 3.24996 990.346 2.14996 985.846C1.04996 981.346 0.499957 976.596 0.499957 971.596C0.499958 963.396 1.79996 955.896 4.39996 949.096C6.99996 942.396 10.7 936.596 15.5 931.696C20.4 926.896 26.2 923.146 32.9 920.446C39.6 917.846 47.05 916.546 55.25 916.546C63.25 916.546 70.6 917.896 77.3 920.596C84 923.396 89.8 927.246 94.7 932.146C99.6 937.146 103.35 942.896 105.95 949.396C108.65 955.996 110 963.096 110 970.696C110 977.596 109 983.496 107 988.396C105 993.296 102.2 997.346 98.6 1000.55C95.1 1003.85 91 1006.4 86.3 1008.2L89.9 1002.2L108.5 1004.75L108.5 1011.2L77.6 1011.2L77.6 1005.05C82.5 1003.65 86.85 1001.55 90.65 998.746C94.55 996.046 97.6 992.596 99.8 988.396C102.1 984.196 103.25 979.246 103.25 973.546C103.25 968.946 102.2 964.696 100.1 960.796C98 956.896 94.95 953.496 90.95 950.596C86.95 947.796 81.95 945.596 75.95 943.996C70.05 942.496 63.15 941.746 55.25 941.746C47.25 941.746 40.2 942.446 34.1 943.846C28.1 945.246 23.05 947.296 18.95 949.996C14.85 952.696 11.8 955.996 9.79996 959.896C7.79996 963.796 6.79996 968.146 6.79996 972.946C6.79996 976.446 7.19996 979.446 7.99996 981.946C8.79996 984.546 9.74996 986.696 10.85 988.396C12.05 990.196 13.1 991.546 14 992.446L45.2 992.446C47.2 992.446 48.55 991.446 49.25 989.446C49.95 987.446 50.3 984.896 50.3 981.796L50.3 980.746L54.95 980.746L54.95 1022.9L50.3 1022.9L50.3 1022C50.3 1020.3 49.95 1018.65 49.25 1017.05C48.55 1015.45 47.2 1014.65 45.2 1014.65ZM33.4999 1193.21L1.99995 1193.21L1.99995 1109.96L7.24995 1109.96L7.24995 1111.16C7.24995 1113.86 7.59995 1116.16 8.29995 1118.06C8.99995 1119.96 10.45 1120.91 12.65 1120.91L97.85 1120.91C100.05 1120.91 101.5 1119.96 102.2 1118.06C102.9 1116.16 103.25 1113.86 103.25 1111.16L103.25 1109.96L108.5 1109.96L108.5 1190.21L80.75 1190.21L80.75 1184.51L94.55 1181.66C96.55 1181.26 98.1 1180.41 99.1999 1179.11C100.3 1177.91 101.05 1176.11 101.45 1173.71C101.95 1171.41 102.2 1168.51 102.2 1165.01L102.2 1144.91L8.29995 1144.91L8.29995 1166.21C8.29995 1169.31 8.39995 1171.91 8.59995 1174.01C8.89995 1176.21 9.34995 1178.01 9.94995 1179.41C10.5499 1180.81 11.3499 1181.86 12.3499 1182.56C13.3499 1183.36 14.5999 1183.91 16.0999 1184.21L33.4999 1187.36L33.4999 1193.21ZM59.15 1142.51C59.35 1147.81 59.6 1152.51 59.9 1156.61C60.2 1160.81 60.55 1164.66 60.9499 1168.16C61.45 1171.66 62.15 1175.11 63.0499 1178.51L49.8499 1178.51C50.7499 1175.11 51.4499 1171.66 51.9499 1168.16C52.45 1164.66 52.85 1160.81 53.15 1156.61C53.45 1152.51 53.65 1147.81 53.75 1142.51L59.15 1142.51Z" fill="#EEECEC" fill-opacity="0.65"/>
</svg>
