<svg width="21" height="15" viewBox="0 0 21 15" fill="none" xmlns="http://www.w3.org/2000/svg">
<path opacity="0.75" d="M20.2793 4.96094C20.4355 4.84375 20.6699 4.96094 20.6699 5.15625V13.125C20.6699 14.1797 19.8105 15 18.7949 15H2.54492C1.49023 15 0.669922 14.1797 0.669922 13.125V5.15625C0.669922 4.96094 0.865234 4.84375 1.02148 4.96094C1.91992 5.66406 3.05273 6.52344 7.03711 9.41406C7.85742 10 9.26367 11.2891 10.6699 11.2891C12.0371 11.2891 13.4824 10 14.2637 9.41406C18.248 6.52344 19.3809 5.66406 20.2793 4.96094ZM10.6699 10C9.73242 10.0391 8.44336 8.86719 7.7793 8.39844C2.58398 4.64844 2.19336 4.29688 1.02148 3.35938C0.787109 3.20312 0.669922 2.92969 0.669922 2.61719V1.875C0.669922 0.859375 1.49023 0 2.54492 0H18.7949C19.8105 0 20.6699 0.859375 20.6699 1.875V2.61719C20.6699 2.92969 20.5137 3.20312 20.2793 3.35938C19.1074 4.29688 18.7168 4.64844 13.5215 8.39844C12.8574 8.86719 11.5684 10.0391 10.6699 10Z" fill="white"/>
</svg>
