<svg width="16" height="22" viewBox="0 0 16 22" fill="none" xmlns="http://www.w3.org/2000/svg">
<path d="M7.54165 11.2618C7.33332 10.5951 7.37499 9.30344 7.45832 9.30344C7.83332 9.30344 7.79165 10.8451 7.54165 11.2618ZM7.49999 13.2201C7.87499 13.9284 8.41665 14.5118 8.91665 14.9284C7.91665 15.0951 7.08332 15.5118 6.29166 15.8034C6.74999 15.0118 7.16666 14.0534 7.49999 13.2201ZM3.58333 18.4284C3.79166 17.7618 4.74999 17.0118 5.04166 16.7201C4.12499 18.1784 3.58333 18.4284 3.58333 18.4284ZM10.3333 7.22011H16V20.8868C16 21.4701 15.5416 21.8868 15 21.8868H0.999998C0.416666 21.8868 0 21.4701 0 20.8868V1.55345C0 1.01179 0.416666 0.553456 0.999998 0.553456H9.33332V6.22011C9.33332 6.80345 9.74998 7.22011 10.3333 7.22011ZM9.99998 14.3868C9.16665 13.8868 8.58332 13.1784 8.20832 12.1368C8.37499 11.3868 8.66665 10.2201 8.45832 9.47011C8.24999 8.26178 6.70832 8.38678 6.45832 9.17844C6.24999 9.97011 6.45832 11.0534 6.79166 12.3868C6.33332 13.5534 5.62499 15.0951 5.12499 15.9701C5.08333 15.9701 5.08333 15.9701 5.08333 15.9701C3.95833 16.5534 2.04166 17.8451 2.83333 18.8034C3.04166 19.0951 3.49999 19.2201 3.70833 19.2201C4.45833 19.2201 5.20833 18.4701 6.24999 16.6784C7.33332 16.3034 8.54165 15.8451 9.54165 15.6784C10.4583 16.1784 11.5416 16.5118 12.2083 16.5118C13.4583 16.5118 13.5416 15.1784 13.0416 14.6784C12.4583 14.1368 10.7916 14.3034 9.99998 14.3868ZM15.7083 4.92845C15.875 5.13678 16 5.38678 16 5.63678V5.88678H10.6666V0.553456H10.9166C11.1666 0.553456 11.4166 0.678455 11.625 0.845122L15.7083 4.92845ZM12.5833 15.5951C12.5833 15.5951 12.375 15.8868 10.8333 15.2201C12.5 15.0951 12.7916 15.4701 12.5833 15.5951Z" fill="#DC3545"/>
</svg>
