<svg width="20" height="20" viewBox="0 0 20 20" fill="none" xmlns="http://www.w3.org/2000/svg">
<path opacity="0.75" d="M18.9648 1.30273C19.373 1.41406 19.6699 1.74805 19.6699 2.15625C19.6699 11.6934 11.9512 19.375 2.45117 19.375C2.00586 19.375 1.67188 19.1152 1.56055 18.707L0.669922 14.8477C0.595703 14.4395 0.78125 13.9941 1.18945 13.8086L5.3457 12.0273C5.7168 11.8789 6.125 11.9902 6.38477 12.2871L8.24023 14.5508C11.1348 13.1777 13.4727 10.8027 14.8086 7.98242L12.5449 6.12695C12.248 5.86719 12.1367 5.45898 12.2852 5.08789L14.0664 0.931641C14.252 0.523438 14.6973 0.300781 15.1055 0.412109L18.9648 1.30273Z" fill="white"/>
</svg>
