<svg id="svg" version="1.1" width="400" height="357.43621655258244" viewBox="0 0 400 357.43621655258244" xmlns="http://www.w3.org/2000/svg" xmlns:xlink="http://www.w3.org/1999/xlink" ><g id="svgg"><path id="path0" d="M203.486 2.144 C 207.307 12.295,208.135 23.371,205.702 31.802 C 203.677 38.818,201.016 43.513,192.955 54.292 C 188.466 60.295,186.623 63.102,185.148 66.181 C 179.637 77.688,184.418 89.164,200.950 104.110 L 202.895 105.869 201.967 104.287 C 194.031 90.745,191.620 70.230,197.395 65.370 C 201.357 62.036,204.080 74.998,203.139 92.719 C 203.044 94.499,202.977 95.980,202.990 96.009 C 203.002 96.039,203.506 94.807,204.109 93.271 C 207.089 85.686,211.171 78.484,219.797 65.588 C 226.014 56.294,227.938 53.096,229.455 49.533 C 235.749 34.753,229.043 21.419,205.974 2.844 C 202.660 0.175,202.755 0.202,203.486 2.144 M226.928 94.615 C 219.869 105.482,218.752 116.662,223.472 129.199 C 226.125 136.249,233.454 150.904,236.907 156.067 C 240.027 160.731,246.663 169.187,247.396 169.433 C 247.612 169.506,263.732 146.607,263.657 146.333 C 263.622 146.205,261.140 142.423,258.143 137.930 C 251.422 127.856,243.084 115.161,234.905 102.551 C 231.486 97.281,228.598 92.869,228.486 92.748 C 228.375 92.627,227.674 93.467,226.928 94.615 M172.549 93.528 C 172.286 93.905,170.188 97.125,167.886 100.685 C 159.115 114.249,149.014 129.567,134.896 150.716 C 121.591 170.648,114.902 180.559,81.981 229.123 C 52.846 272.103,23.850 315.816,20.705 321.502 C 19.270 324.098,17.763 327.352,15.189 333.416 C 11.251 342.693,10.074 344.813,6.927 348.287 C 4.239 351.255,1.936 354.224,0.747 356.254 L 0.200 357.187 199.986 357.187 L 399.772 357.187 399.096 356.005 C 398.086 354.237,396.015 351.120,394.176 348.600 C 392.056 345.693,389.516 340.706,386.064 332.670 C 381.258 321.479,381.720 322.253,362.089 292.470 C 350.410 274.754,332.629 248.273,313.337 219.870 L 307.898 211.862 300.530 216.309 C 296.477 218.755,293.105 220.813,293.037 220.881 C 292.752 221.166,308.022 246.511,315.256 257.759 C 325.752 274.080,331.923 282.835,340.017 292.887 C 348.480 303.398,350.819 307.808,352.336 316.117 C 353.268 321.220,353.042 333.805,351.874 341.870 L 351.587 343.851 350.467 344.176 C 342.619 346.451,333.578 345.154,321.842 340.071 C 319.309 338.974,315.501 337.322,313.379 336.401 C 292.707 327.425,279.418 327.691,249.035 337.688 C 223.934 345.948,209.586 348.710,194.746 348.138 C 183.064 347.688,176.466 345.967,159.066 338.835 C 140.672 331.294,133.658 329.683,119.228 329.683 C 108.238 329.683,102.982 330.473,87.119 334.510 C 69.924 338.886,62.508 339.795,52.599 338.741 C 48.698 338.326,48.923 338.908,48.630 328.438 C 48.189 312.693,50.270 307.021,61.783 292.595 C 74.257 276.965,87.041 257.641,104.143 228.562 C 115.452 209.333,116.037 208.599,136.393 188.050 C 154.597 169.674,160.633 162.731,166.098 153.883 C 168.402 150.152,175.522 135.566,177.551 130.419 C 182.680 117.408,181.691 106.103,174.430 94.773 C 173.003 92.546,173.162 92.651,172.549 93.528 M267.082 171.665 C 262.906 176.512,259.331 180.705,259.137 180.984 C 258.812 181.451,264.388 187.679,265.131 187.679 C 265.227 187.679,268.776 184.080,273.018 179.681 L 280.732 171.682 277.850 167.422 C 276.264 165.078,274.901 163.092,274.820 163.007 C 274.739 162.922,271.257 166.818,267.082 171.665 M283.555 192.939 L 276.279 199.175 278.469 201.579 C 280.327 203.617,283.766 207.547,283.906 207.791 C 283.973 207.908,297.813 197.631,297.895 197.404 C 297.945 197.261,291.445 187.398,290.877 186.756 C 290.852 186.727,287.557 189.510,283.555 192.939 M229.076 188.473 C 228.777 188.926,228.374 189.987,228.181 190.830 C 227.551 193.587,225.575 195.491,223.273 195.561 C 222.520 195.584,221.708 195.612,221.469 195.623 C 220.500 195.670,217.050 199.696,217.050 200.781 C 217.050 201.853,218.931 201.405,220.746 199.900 C 222.333 198.584,222.750 198.403,224.782 198.148 C 227.133 197.853,227.965 196.990,229.003 193.777 C 229.179 193.230,229.812 191.728,230.409 190.441 C 231.618 187.833,231.615 187.955,230.460 187.778 C 229.721 187.664,229.555 187.747,229.076 188.473 M148.692 194.583 L 147.664 194.978 148.504 197.471 C 149.254 199.699,149.304 200.008,148.972 200.375 C 148.444 200.958,148.508 201.813,149.222 203.710 C 149.919 205.561,149.998 207.092,149.583 210.703 C 149.441 211.935,149.396 213.361,149.482 213.872 L 149.638 214.801 150.351 214.432 C 151.443 213.867,155.833 213.919,156.557 214.505 C 157.230 215.050,156.997 215.314,154.698 216.610 L 153.205 217.452 153.205 218.776 C 153.205 220.643,152.785 220.861,150.936 219.954 C 149.141 219.073,148.591 219.262,147.007 221.302 C 145.815 222.836,145.418 223.002,144.368 222.402 C 142.470 221.317,140.160 222.194,138.564 224.606 C 137.116 226.795,132.518 229.471,130.174 229.491 C 128.915 229.501,127.912 228.269,127.177 225.809 C 126.728 224.305,126.438 224.951,126.199 227.986 C 125.897 231.836,125.088 232.729,120.534 234.246 C 117.700 235.191,114.456 237.264,111.926 239.749 C 110.068 241.575,110.142 241.335,110.657 243.871 C 111.109 246.092,108.543 247.204,107.994 245.025 C 107.611 243.504,107.190 243.600,104.847 245.737 C 103.590 246.885,101.785 248.161,99.891 249.242 C 96.176 251.362,94.426 252.740,93.217 254.495 L 92.274 255.865 93.197 256.887 C 94.089 257.874,94.107 257.930,93.721 258.520 C 93.198 259.318,93.262 259.393,95.398 260.448 C 100.287 262.864,101.755 262.942,103.547 260.882 C 105.527 258.605,107.829 257.866,112.881 257.885 C 116.406 257.898,118.551 259.365,122.816 264.679 C 125.851 268.461,127.683 269.830,132.046 271.577 C 134.318 272.487,134.125 272.501,135.553 271.321 C 140.504 267.229,150.073 274.261,151.971 283.385 C 152.961 288.148,152.543 293.170,151.080 294.094 C 148.771 295.552,147.892 299.051,148.855 302.951 C 149.169 304.219,149.435 305.789,149.448 306.440 C 149.461 307.091,149.538 307.546,149.620 307.452 C 151.646 305.128,206.421 227.229,206.387 226.722 C 206.359 226.293,206.638 225.711,207.186 225.054 C 209.679 222.071,208.185 219.611,204.914 221.311 C 202.692 222.466,202.116 222.459,202.116 221.277 C 202.116 220.125,202.687 219.237,204.162 218.100 C 207.063 215.862,207.413 214.662,204.813 215.868 C 203.176 216.628,202.299 217.327,198.491 220.902 C 195.305 223.895,194.136 224.558,193.232 223.887 C 192.039 223.001,197.153 217.050,199.108 217.050 C 199.700 217.050,200.189 216.265,199.964 215.676 C 199.876 215.448,199.953 214.475,200.134 213.513 L 200.464 211.764 199.112 210.490 C 197.534 209.005,197.496 209.006,195.489 210.603 C 194.034 211.761,193.879 211.823,192.448 211.823 L 190.941 211.823 189.025 208.628 L 187.108 205.432 182.330 205.153 L 177.553 204.874 173.593 203.081 C 169.502 201.230,166.349 199.303,164.113 197.289 L 162.825 196.129 157.554 195.971 L 152.284 195.812 151.290 194.982 C 150.169 194.045,150.112 194.036,148.692 194.583 M208.872 200.141 C 208.445 202.569,207.847 202.948,206.737 201.493 C 205.946 200.455,202.350 200.096,202.377 201.058 C 202.426 202.765,203.515 204.980,204.365 205.103 C 205.125 205.212,205.267 205.354,205.566 206.297 C 205.969 207.572,206.274 207.536,207.061 206.122 L 207.651 205.063 208.504 205.889 C 209.567 206.919,210.424 208.367,211.213 210.463 C 212.067 212.732,212.036 212.991,210.985 212.341 C 209.643 211.512,209.458 211.858,210.330 213.566 C 210.604 214.102,210.828 214.878,210.828 215.289 C 210.828 215.700,210.604 216.605,210.330 217.299 C 209.742 218.791,209.693 219.861,210.193 220.276 C 210.855 220.825,211.373 220.429,212.949 218.171 L 214.513 215.930 213.286 212.819 C 210.709 206.285,210.331 204.992,210.316 202.652 C 210.292 199.015,209.357 197.389,208.872 200.141 M219.669 226.752 C 218.960 227.536,222.366 232.256,223.106 231.516 C 223.591 231.031,223.589 231.022,222.844 230.075 C 222.431 229.551,221.646 228.481,221.098 227.697 C 220.129 226.309,220.092 226.285,219.669 226.752 M189.649 261.530 C 155.843 300.756,153.085 303.968,154.006 303.049 C 154.418 302.638,168.731 287.797,185.812 270.068 C 202.894 252.340,217.747 236.938,218.818 235.843 L 220.767 233.852 219.579 232.110 C 218.526 230.566,218.290 230.359,217.513 230.292 L 216.635 230.218 189.649 261.530 M229.433 239.373 C 229.041 239.765,229.082 239.871,230.087 241.053 C 230.677 241.747,231.585 242.959,232.105 243.746 C 233.025 245.138,233.521 245.464,233.867 244.905 C 234.033 244.635,230.369 238.955,230.029 238.955 C 229.931 238.955,229.663 239.143,229.433 239.373 M289.076 240.019 C 288.419 240.534,288.115 240.572,284.710 240.572 L 281.050 240.572 280.091 241.506 C 279.342 242.236,278.936 242.439,278.233 242.439 C 277.344 242.439,277.324 242.462,276.551 244.368 C 275.157 247.810,274.998 248.118,274.253 248.831 C 272.933 250.095,268.986 249.486,266.144 247.580 C 264.784 246.668,264.651 245.949,265.462 243.906 C 266.020 242.503,265.853 241.942,264.878 241.942 C 263.681 241.942,262.552 243.504,260.114 248.534 C 257.848 253.209,257.515 253.640,256.178 253.640 C 255.775 253.640,254.225 254.247,252.733 254.987 C 248.351 257.163,246.776 257.030,242.592 254.129 C 240.506 252.684,239.701 252.436,239.701 253.240 C 239.701 253.792,242.106 255.774,243.956 256.746 C 246.106 257.876,246.391 258.214,245.773 258.897 C 245.406 259.303,245.103 259.387,244.369 259.289 C 243.547 259.179,243.358 259.258,242.805 259.949 C 242.072 260.866,241.594 260.542,241.290 258.922 C 241.092 257.868,240.311 257.492,237.834 257.260 C 236.876 257.170,235.633 256.932,235.071 256.731 L 234.051 256.366 193.130 280.982 L 152.209 305.598 149.928 307.877 C 148.029 309.773,147.404 310.239,146.207 310.651 C 144.103 311.375,143.545 311.797,143.729 312.528 C 143.928 313.321,143.263 313.343,142.421 312.570 L 141.811 312.010 141.945 313.061 C 142.125 314.472,142.977 315.783,144.082 316.348 C 144.582 316.603,145.403 317.272,145.906 317.834 C 146.927 318.973,147.020 318.990,149.960 318.565 C 152.597 318.183,153.388 318.496,153.589 320.000 C 154.179 324.404,160.671 327.189,166.506 325.542 C 167.830 325.168,169.161 325.002,170.993 324.982 L 173.598 324.953 173.874 323.972 C 174.220 322.744,174.481 322.656,175.425 323.450 C 176.514 324.366,176.871 324.264,177.204 322.940 L 177.492 321.798 178.736 321.969 C 180.275 322.180,182.203 320.610,182.203 319.145 C 182.203 318.208,182.581 317.982,184.539 317.744 C 186.468 317.510,187.077 316.914,187.312 315.030 C 187.511 313.441,187.638 313.381,189.385 314.048 C 190.820 314.596,191.413 314.025,191.413 312.094 C 191.413 310.759,191.771 309.894,193.061 308.121 C 194.389 306.295,194.886 304.975,194.892 303.254 C 194.900 300.968,196.775 299.623,202.240 297.985 C 206.056 296.841,206.843 296.514,207.944 295.615 C 209.199 294.589,210.125 294.105,211.573 293.715 C 212.188 293.550,213.124 293.194,213.652 292.924 C 214.180 292.655,215.300 292.324,216.142 292.189 C 216.984 292.054,218.555 291.545,219.632 291.059 L 221.592 290.175 223.739 290.887 C 225.716 291.543,225.908 291.665,226.155 292.429 C 227.297 295.962,231.238 292.745,231.238 288.280 C 231.238 286.033,231.323 285.909,233.479 285.019 C 235.228 284.296,236.168 283.407,236.371 282.284 C 236.831 279.726,238.682 279.129,241.065 280.768 C 242.711 281.901,242.975 281.805,242.780 280.145 C 242.590 278.527,242.986 277.891,244.343 277.637 C 245.554 277.410,245.579 277.126,244.439 276.545 C 242.170 275.387,244.856 271.782,249.994 269.089 C 254.357 266.803,265.129 270.158,265.705 273.983 C 266.136 276.847,266.703 277.483,267.777 276.307 C 268.601 275.405,269.670 275.047,271.537 275.047 C 272.863 275.047,272.909 275.022,274.356 273.516 L 275.826 271.984 279.096 272.141 C 280.894 272.227,283.335 272.484,284.521 272.712 C 287.145 273.217,287.509 273.136,289.226 271.671 C 290.494 270.589,290.645 270.525,291.588 270.686 C 292.142 270.780,292.937 270.914,293.356 270.982 C 294.390 271.152,296.064 269.866,297.138 268.078 C 298.147 266.396,298.144 266.283,297.069 265.558 C 295.574 264.549,294.862 260.531,295.696 257.810 C 296.005 256.802,296.009 256.452,295.724 255.445 C 294.944 252.693,295.217 251.898,296.942 251.898 C 298.597 251.898,298.941 251.375,297.995 250.297 C 296.450 248.538,297.788 247.630,301.064 248.213 C 305.129 248.937,307.176 246.978,304.770 244.666 C 304.279 244.194,303.717 243.500,303.519 243.124 C 303.120 242.361,302.718 242.297,301.081 242.735 C 300.060 243.008,299.906 242.983,299.024 242.406 C 297.603 241.476,297.264 241.406,295.683 241.717 C 293.927 242.062,293.339 241.934,292.076 240.927 C 290.295 239.508,289.886 239.384,289.076 240.019 M191.403 271.961 C 172.310 288.333,156.521 301.898,156.316 302.106 C 155.868 302.561,155.964 302.491,194.478 274.051 C 211.257 261.661,224.991 251.357,224.999 251.151 C 225.007 250.946,224.686 250.285,224.286 249.682 L 223.559 248.586 223.696 249.605 C 223.974 251.680,223.182 252.894,221.549 252.894 C 220.043 252.894,219.217 251.686,220.178 250.889 C 220.697 250.458,221.174 249.477,221.374 248.430 C 221.607 247.208,222.116 246.764,223.987 246.152 C 226.529 245.321,227.574 243.654,226.332 242.412 C 226.210 242.290,211.034 255.128,191.403 271.961 " stroke="none" fill="#254c72" fill-rule="evenodd"></path><path id="path1" d="M214.615 10.344 C 215.124 10.870,215.600 11.241,215.673 11.168 C 215.746 11.095,215.330 10.664,214.748 10.211 L 213.690 9.387 214.615 10.344 M231.823 39.079 C 231.823 40.243,231.866 40.719,231.918 40.137 C 231.971 39.555,231.971 38.603,231.918 38.021 C 231.866 37.439,231.823 37.915,231.823 39.079 M182.775 75.420 C 182.775 76.173,182.822 76.481,182.879 76.105 C 182.936 75.728,182.936 75.112,182.879 74.736 C 182.822 74.359,182.775 74.667,182.775 75.420 M194.234 77.411 C 194.234 78.438,194.278 78.858,194.332 78.345 C 194.386 77.831,194.386 76.991,194.332 76.478 C 194.278 75.965,194.234 76.385,194.234 77.411 M203.202 83.012 C 203.203 84.381,203.245 84.909,203.295 84.186 C 203.346 83.462,203.345 82.342,203.294 81.697 C 203.243 81.051,203.202 81.643,203.202 83.012 M203.202 87.990 C 203.203 89.359,203.245 89.887,203.295 89.164 C 203.346 88.441,203.345 87.321,203.294 86.675 C 203.243 86.029,203.202 86.621,203.202 87.990 M202.925 94.711 C 202.928 95.258,202.979 95.453,203.039 95.143 C 203.098 94.834,203.096 94.386,203.033 94.148 C 202.971 93.910,202.922 94.163,202.925 94.711 M194.886 98.444 C 195.481 99.129,196.259 99.959,196.615 100.289 C 196.971 100.619,197.682 101.285,198.195 101.770 C 198.709 102.255,199.129 102.600,199.129 102.535 C 199.129 102.471,197.931 101.244,196.467 99.809 C 195.003 98.374,194.291 97.760,194.886 98.444 M200.622 104.122 C 200.622 104.165,200.986 104.463,201.431 104.784 L 202.240 105.368 201.637 104.706 C 201.121 104.141,200.622 103.854,200.622 104.122 M180.772 113.379 C 180.775 113.927,180.826 114.121,180.885 113.812 C 180.945 113.502,180.943 113.054,180.880 112.816 C 180.818 112.578,180.769 112.831,180.772 113.379 M180.777 116.490 C 180.777 117.106,180.826 117.358,180.885 117.050 C 180.944 116.742,180.944 116.238,180.885 115.930 C 180.826 115.622,180.777 115.874,180.777 116.490 M151.462 172.495 C 151.069 172.906,150.852 173.236,150.980 173.228 C 151.199 173.215,152.483 171.749,152.275 171.749 C 152.221 171.749,151.856 172.085,151.462 172.495 M279.332 173.063 C 278.618 173.786,278.034 174.479,278.034 174.604 C 278.034 174.728,278.275 174.556,278.571 174.222 C 278.867 173.889,279.505 173.195,279.991 172.682 C 281.328 171.266,280.810 171.566,279.332 173.063 M147.223 177.005 C 146.406 177.843,145.863 178.487,146.016 178.437 C 146.288 178.347,148.991 175.482,148.804 175.482 C 148.751 175.482,148.040 176.168,147.223 177.005 M272.799 179.868 C 271.913 180.774,271.312 181.474,271.462 181.423 C 271.733 181.332,274.691 178.220,274.506 178.220 C 274.453 178.220,273.685 178.962,272.799 179.868 M258.619 181.273 C 258.619 181.446,260.075 183.041,261.855 184.817 L 265.091 188.046 266.522 186.559 L 267.953 185.071 266.519 186.431 L 265.085 187.791 261.973 184.687 C 260.262 182.979,258.915 181.442,258.981 181.270 C 259.047 181.099,258.992 180.958,258.860 180.958 C 258.727 180.958,258.619 181.100,258.619 181.273 M226.120 194.213 L 225.389 195.022 226.198 194.291 C 226.643 193.889,227.007 193.525,227.007 193.482 C 227.007 193.289,226.801 193.459,226.120 194.213 M151.914 195.457 C 152.175 195.697,152.572 195.886,152.797 195.877 C 153.055 195.867,152.981 195.772,152.596 195.618 C 152.261 195.484,151.864 195.296,151.713 195.198 C 151.562 195.101,151.653 195.218,151.914 195.457 M222.965 195.571 C 223.275 195.631,223.723 195.628,223.961 195.566 C 224.199 195.504,223.945 195.455,223.398 195.458 C 222.850 195.461,222.655 195.512,222.965 195.571 M160.231 196.073 C 160.673 196.128,161.457 196.129,161.973 196.075 C 162.490 196.021,162.128 195.976,161.170 195.975 C 160.212 195.974,159.789 196.018,160.231 196.073 M164.087 197.270 C 164.459 197.662,164.809 197.932,164.863 197.871 C 164.918 197.810,164.613 197.489,164.186 197.159 L 163.410 196.558 164.087 197.270 M125.451 199.004 C 124.847 199.620,124.408 200.124,124.476 200.124 C 124.545 200.124,125.095 199.620,125.700 199.004 C 126.305 198.388,126.743 197.884,126.675 197.884 C 126.606 197.884,126.056 198.388,125.451 199.004 M277.038 200.202 C 277.038 200.245,277.402 200.609,277.847 201.011 L 278.656 201.742 277.925 200.933 C 277.243 200.179,277.038 200.010,277.038 200.202 M148.448 200.729 C 148.373 200.924,148.353 201.344,148.404 201.662 C 148.473 202.087,148.530 201.993,148.623 201.307 C 148.753 200.340,148.684 200.113,148.448 200.729 M204.975 200.558 C 205.521 200.614,206.112 200.779,206.288 200.925 C 206.532 201.128,206.570 201.094,206.451 200.782 C 206.333 200.475,206.007 200.384,205.138 200.415 L 203.983 200.457 204.975 200.558 M179.527 205.025 C 179.767 205.088,180.159 205.088,180.398 205.025 C 180.638 204.963,180.442 204.912,179.963 204.912 C 179.484 204.912,179.287 204.963,179.527 205.025 M183.886 205.279 C 184.196 205.338,184.644 205.336,184.882 205.274 C 185.120 205.211,184.866 205.163,184.319 205.165 C 183.771 205.168,183.576 205.219,183.886 205.279 M199.751 219.421 C 199.203 219.893,198.873 220.281,199.018 220.283 C 199.162 220.285,199.660 219.894,200.124 219.415 C 201.194 218.312,201.035 218.314,199.751 219.421 M218.046 236.590 C 217.164 237.480,216.531 238.208,216.640 238.208 C 216.748 238.208,216.969 238.060,217.130 237.879 C 217.292 237.699,217.980 236.971,218.659 236.262 C 219.338 235.552,219.839 234.972,219.772 234.972 C 219.705 234.972,218.928 235.700,218.046 236.590 M286.185 240.628 C 286.630 240.683,287.358 240.683,287.803 240.628 C 288.248 240.573,287.884 240.528,286.994 240.528 C 286.105 240.528,285.741 240.573,286.185 240.628 M211.318 243.589 C 210.432 244.495,209.820 245.195,209.956 245.144 C 210.228 245.045,213.212 241.942,213.036 241.942 C 212.977 241.942,212.204 242.683,211.318 243.589 M303.671 243.343 C 303.671 243.475,304.147 244.026,304.729 244.567 L 305.787 245.551 304.792 244.434 C 304.244 243.820,303.768 243.270,303.734 243.211 C 303.699 243.151,303.671 243.211,303.671 243.343 M204.356 250.778 C 203.474 251.668,202.841 252.396,202.950 252.396 C 203.058 252.396,203.279 252.248,203.440 252.067 C 203.602 251.887,204.290 251.159,204.969 250.450 C 205.648 249.740,206.149 249.160,206.082 249.160 C 206.015 249.160,205.238 249.888,204.356 250.778 M297.928 250.238 C 298.562 250.936,298.698 251.022,298.685 250.716 C 298.681 250.613,298.373 250.314,298.001 250.051 L 297.324 249.573 297.928 250.238 M242.902 256.364 C 243.226 256.645,243.608 256.876,243.753 256.876 C 244.059 256.876,244.044 256.864,243.062 256.288 L 242.315 255.851 242.902 256.364 M197.628 257.777 C 196.742 258.683,196.129 259.383,196.266 259.332 C 196.538 259.233,199.521 256.129,199.346 256.129 C 199.287 256.129,198.514 256.871,197.628 257.777 M247.978 256.550 C 248.217 256.613,248.609 256.613,248.849 256.550 C 249.088 256.487,248.892 256.436,248.413 256.436 C 247.934 256.436,247.738 256.487,247.978 256.550 M295.276 260.112 C 295.276 260.728,295.325 260.980,295.384 260.672 C 295.443 260.364,295.443 259.860,295.384 259.552 C 295.325 259.244,295.276 259.496,295.276 260.112 M100.871 262.524 C 101.111 262.586,101.503 262.586,101.742 262.524 C 101.982 262.461,101.786 262.410,101.307 262.410 C 100.828 262.410,100.632 262.461,100.871 262.524 M190.721 264.910 C 189.869 265.770,189.172 266.575,189.172 266.700 C 189.172 266.824,189.414 266.653,189.709 266.319 C 190.004 265.986,190.756 265.180,191.380 264.530 C 192.004 263.880,192.459 263.348,192.392 263.348 C 192.324 263.348,191.573 264.051,190.721 264.910 M125.202 267.704 C 125.667 268.183,126.103 268.575,126.171 268.575 C 126.240 268.575,125.916 268.183,125.451 267.704 C 124.987 267.225,124.551 266.833,124.482 266.833 C 124.414 266.833,124.738 267.225,125.202 267.704 M183.813 272.089 C 182.996 272.927,182.440 273.571,182.577 273.521 C 182.847 273.421,185.580 270.566,185.405 270.566 C 185.346 270.566,184.630 271.252,183.813 272.089 M273.678 274.300 C 273.430 274.574,273.353 274.798,273.506 274.798 C 273.659 274.798,273.904 274.574,274.051 274.300 C 274.198 274.026,274.275 273.802,274.223 273.802 C 274.171 273.802,273.925 274.026,273.678 274.300 M270.383 275.225 C 270.761 275.282,271.321 275.281,271.628 275.222 C 271.934 275.163,271.624 275.116,270.940 275.118 C 270.255 275.120,270.005 275.168,270.383 275.225 M177.031 279.098 C 176.179 279.957,175.482 280.763,175.482 280.887 C 175.482 281.012,175.724 280.841,176.019 280.507 C 176.314 280.174,177.066 279.368,177.690 278.718 C 178.313 278.068,178.769 277.536,178.702 277.536 C 178.634 277.536,177.882 278.239,177.031 279.098 M235.571 283.795 C 235.099 284.326,235.099 284.327,235.657 284.035 C 235.965 283.873,236.217 283.633,236.217 283.501 C 236.217 283.147,236.097 283.201,235.571 283.795 M170.123 286.277 C 169.306 287.115,168.750 287.759,168.887 287.708 C 169.157 287.609,171.890 284.754,171.715 284.754 C 171.656 284.754,170.940 285.440,170.123 286.277 M152.411 288.861 C 152.412 289.683,152.459 289.989,152.514 289.541 C 152.569 289.094,152.568 288.422,152.511 288.048 C 152.455 287.674,152.409 288.040,152.411 288.861 M163.466 293.161 C 162.545 294.089,161.792 294.950,161.792 295.075 C 161.792 295.200,162.034 295.029,162.329 294.695 C 162.624 294.362,163.432 293.500,164.125 292.782 C 164.817 292.063,165.329 291.475,165.262 291.475 C 165.194 291.475,164.386 292.234,163.466 293.161 M157.187 299.689 C 156.739 300.156,156.408 300.335,156.304 300.166 C 156.143 299.906,155.963 300.151,155.832 300.809 C 155.805 300.946,155.595 301.270,155.365 301.530 C 155.135 301.789,155.060 301.957,155.197 301.903 C 155.479 301.792,158.193 298.942,158.017 298.942 C 157.954 298.942,157.581 299.278,157.187 299.689 M157.333 301.032 C 157.099 301.314,157.105 301.381,157.360 301.344 C 157.704 301.293,157.926 300.967,157.741 300.782 C 157.681 300.722,157.497 300.834,157.333 301.032 M155.302 302.842 L 154.698 303.507 155.375 303.029 C 155.747 302.766,156.055 302.467,156.059 302.365 C 156.072 302.058,155.936 302.144,155.302 302.842 M149.404 306.658 C 149.404 307.138,149.456 307.334,149.518 307.094 C 149.581 306.854,149.581 306.462,149.518 306.223 C 149.456 305.983,149.404 306.179,149.404 306.658 M150.464 306.911 C 150.378 307.050,150.186 307.089,150.038 306.997 C 149.882 306.901,149.839 306.946,149.936 307.102 C 150.028 307.252,149.906 307.485,149.665 307.620 C 149.424 307.755,149.290 307.929,149.367 308.006 C 149.444 308.083,149.828 307.812,150.220 307.403 C 150.612 306.993,150.863 306.658,150.777 306.658 C 150.691 306.658,150.550 306.772,150.464 306.911 M150.778 318.533 C 151.086 318.592,151.590 318.592,151.898 318.533 C 152.206 318.474,151.954 318.425,151.338 318.425 C 150.722 318.425,150.470 318.474,150.778 318.533 M48.595 321.593 C 48.595 322.072,48.647 322.268,48.709 322.029 C 48.772 321.789,48.772 321.397,48.709 321.157 C 48.647 320.918,48.595 321.114,48.595 321.593 M171.811 325.249 C 172.050 325.312,172.442 325.312,172.682 325.249 C 172.922 325.187,172.726 325.136,172.246 325.136 C 171.767 325.136,171.571 325.187,171.811 325.249 M162.231 326.249 C 162.540 326.309,162.988 326.307,163.226 326.244 C 163.464 326.182,163.211 326.133,162.663 326.136 C 162.116 326.139,161.921 326.190,162.231 326.249 M48.605 330.305 C 48.605 330.921,48.654 331.173,48.713 330.865 C 48.773 330.557,48.773 330.053,48.713 329.745 C 48.654 329.437,48.605 329.689,48.605 330.305 M117.807 329.494 C 118.737 329.542,120.193 329.542,121.043 329.493 C 121.893 329.445,121.133 329.406,119.353 329.406 C 117.573 329.406,116.878 329.446,117.807 329.494 M283.830 329.991 C 284.622 330.041,285.854 330.040,286.568 329.990 C 287.282 329.940,286.633 329.900,285.128 329.900 C 283.622 329.901,283.038 329.942,283.830 329.991 M352.770 331.176 C 352.772 331.724,352.823 331.918,352.883 331.609 C 352.942 331.299,352.940 330.851,352.878 330.613 C 352.816 330.375,352.767 330.629,352.770 331.176 M340.582 345.175 C 341.374 345.224,342.606 345.224,343.320 345.174 C 344.033 345.124,343.385 345.083,341.879 345.084 C 340.373 345.084,339.789 345.125,340.582 345.175 M194.088 348.158 C 194.533 348.213,195.261 348.213,195.706 348.158 C 196.151 348.102,195.787 348.057,194.897 348.057 C 194.007 348.057,193.643 348.102,194.088 348.158 M198.203 348.161 C 198.857 348.212,199.865 348.212,200.443 348.159 C 201.021 348.107,200.485 348.065,199.253 348.066 C 198.021 348.067,197.548 348.109,198.203 348.161 M6.083 349.035 L 5.352 349.844 6.161 349.113 C 6.605 348.711,6.970 348.347,6.970 348.304 C 6.970 348.112,6.764 348.281,6.083 349.035 " stroke="none" fill="#3f5f7f" fill-rule="evenodd"></path><path id="path2" d="" stroke="none" fill="#007f7f" fill-rule="evenodd"></path><path id="path3" d="M212.321 8.043 C 212.321 8.086,212.685 8.450,213.130 8.852 L 213.939 9.583 213.208 8.774 C 212.526 8.020,212.321 7.851,212.321 8.043 M217.922 13.441 C 219.148 14.673,220.207 15.681,220.276 15.681 C 220.344 15.681,219.397 14.673,218.171 13.441 C 216.944 12.209,215.885 11.201,215.816 11.201 C 215.748 11.201,216.695 12.209,217.922 13.441 M206.916 19.291 C 206.918 19.975,206.966 20.226,207.024 19.847 C 207.081 19.469,207.079 18.909,207.020 18.603 C 206.961 18.297,206.914 18.606,206.916 19.291 M206.920 22.651 C 206.920 23.404,206.966 23.712,207.023 23.335 C 207.080 22.959,207.080 22.343,207.023 21.966 C 206.966 21.590,206.920 21.898,206.920 22.651 M202.925 78.780 C 202.928 79.328,202.979 79.523,203.039 79.213 C 203.098 78.903,203.096 78.455,203.033 78.217 C 202.971 77.979,202.922 78.233,202.925 78.780 M202.925 92.968 C 202.928 93.516,202.979 93.711,203.039 93.401 C 203.098 93.091,203.096 92.643,203.033 92.405 C 202.971 92.167,202.922 92.421,202.925 92.968 M199.129 102.629 C 199.129 102.672,199.493 103.036,199.938 103.438 L 200.747 104.169 200.016 103.360 C 199.334 102.606,199.129 102.437,199.129 102.629 M202.506 105.806 C 203.037 106.393,203.172 106.409,203.067 105.873 C 203.023 105.646,202.781 105.431,202.530 105.394 C 202.094 105.330,202.093 105.350,202.506 105.806 M220.368 114.624 C 220.369 115.582,220.414 115.943,220.468 115.427 C 220.522 114.910,220.521 114.126,220.466 113.685 C 220.411 113.243,220.367 113.665,220.368 114.624 M152.940 171.064 L 152.209 171.873 153.018 171.142 C 153.463 170.740,153.827 170.376,153.827 170.333 C 153.827 170.141,153.622 170.310,152.940 171.064 M149.844 174.362 C 149.240 174.978,148.801 175.482,148.870 175.482 C 148.938 175.482,149.489 174.978,150.093 174.362 C 150.698 173.746,151.137 173.242,151.068 173.242 C 151.000 173.242,150.449 173.746,149.844 174.362 M276.160 176.540 L 274.424 178.345 276.229 176.609 C 277.905 174.997,278.147 174.736,277.965 174.736 C 277.927 174.736,277.115 175.548,276.160 176.540 M136.029 188.488 L 126.571 198.009 136.092 188.551 C 141.329 183.350,145.613 179.065,145.613 179.030 C 145.613 178.855,144.819 179.639,136.029 188.488 M269.571 183.323 C 268.551 184.350,267.772 185.190,267.841 185.190 C 267.909 185.190,268.800 184.350,269.820 183.323 C 270.839 182.296,271.618 181.456,271.549 181.456 C 271.481 181.456,270.591 182.296,269.571 183.323 M154.020 195.827 C 154.606 195.879,155.502 195.878,156.012 195.825 C 156.521 195.772,156.042 195.728,154.947 195.729 C 153.852 195.730,153.435 195.774,154.020 195.827 M123.822 200.933 L 122.838 201.991 123.895 201.007 C 124.879 200.092,125.068 199.876,124.879 199.876 C 124.839 199.876,124.363 200.352,123.822 200.933 M278.780 202.240 C 279.245 202.719,279.681 203.111,279.749 203.111 C 279.818 203.111,279.494 202.719,279.029 202.240 C 278.565 201.761,278.129 201.369,278.060 201.369 C 277.992 201.369,278.316 201.761,278.780 202.240 M181.148 205.030 C 181.458 205.089,181.906 205.087,182.144 205.025 C 182.382 204.962,182.128 204.914,181.581 204.917 C 181.033 204.919,180.838 204.970,181.148 205.030 M185.628 205.279 C 185.938 205.338,186.386 205.336,186.624 205.274 C 186.862 205.211,186.609 205.163,186.061 205.165 C 185.513 205.168,185.319 205.219,185.628 205.279 M149.653 207.841 C 149.653 208.320,149.704 208.516,149.767 208.276 C 149.830 208.037,149.830 207.645,149.767 207.405 C 149.704 207.166,149.653 207.362,149.653 207.841 M191.604 211.755 C 192.051 211.810,192.723 211.809,193.097 211.752 C 193.471 211.695,193.105 211.650,192.284 211.651 C 191.462 211.653,191.156 211.699,191.604 211.755 M151.527 214.240 C 151.837 214.299,152.285 214.297,152.523 214.234 C 152.761 214.172,152.508 214.123,151.960 214.126 C 151.413 214.129,151.218 214.180,151.527 214.240 M197.130 221.966 L 195.520 223.647 197.200 222.036 C 198.124 221.150,198.880 220.394,198.880 220.356 C 198.880 220.172,198.626 220.406,197.130 221.966 M126.020 227.878 C 126.022 228.563,126.070 228.813,126.128 228.435 C 126.185 228.056,126.183 227.496,126.124 227.190 C 126.065 226.884,126.018 227.194,126.020 227.878 M214.810 240.075 C 213.790 241.101,213.012 241.942,213.080 241.942 C 213.149 241.942,214.039 241.101,215.059 240.075 C 216.079 239.048,216.857 238.208,216.789 238.208 C 216.721 238.208,215.830 239.048,214.810 240.075 M111.761 239.577 C 111.156 240.193,110.718 240.697,110.786 240.697 C 110.855 240.697,111.405 240.193,112.010 239.577 C 112.615 238.961,113.053 238.457,112.985 238.457 C 112.916 238.457,112.366 238.961,111.761 239.577 M282.456 240.380 C 282.904 240.435,283.576 240.434,283.950 240.377 C 284.324 240.320,283.958 240.275,283.136 240.276 C 282.315 240.278,282.009 240.324,282.456 240.380 M280.011 241.381 L 279.154 242.315 280.147 241.444 C 280.693 240.965,281.187 240.544,281.246 240.510 C 281.305 240.476,281.244 240.448,281.111 240.448 C 280.978 240.448,280.483 240.868,280.011 241.381 M277.198 242.382 C 277.133 242.487,277.518 242.531,278.055 242.480 C 278.591 242.429,279.029 242.343,279.029 242.289 C 279.029 242.103,277.316 242.190,277.198 242.382 M104.783 245.613 L 103.423 247.044 104.854 245.684 C 106.183 244.420,106.399 244.182,106.214 244.182 C 106.175 244.182,105.531 244.826,104.783 245.613 M207.710 247.480 L 205.974 249.284 207.778 247.549 C 209.455 245.937,209.697 245.675,209.514 245.675 C 209.476 245.675,208.664 246.487,207.710 247.480 M201.120 254.263 C 200.100 255.289,199.322 256.129,199.390 256.129 C 199.459 256.129,200.349 255.289,201.369 254.263 C 202.389 253.236,203.167 252.396,203.099 252.396 C 203.030 252.396,202.140 253.236,201.120 254.263 M111.582 258.055 C 112.236 258.107,113.244 258.106,113.822 258.054 C 114.400 258.001,113.864 257.959,112.632 257.960 C 111.400 257.961,110.927 258.004,111.582 258.055 M116.739 258.696 C 116.739 258.739,117.103 259.103,117.548 259.505 L 118.357 260.236 117.626 259.428 C 116.945 258.673,116.739 258.504,116.739 258.696 M194.019 261.668 L 192.284 263.472 194.088 261.737 C 195.764 260.124,196.007 259.863,195.824 259.863 C 195.786 259.863,194.974 260.675,194.019 261.668 M119.965 261.668 C 120.575 262.318,121.107 262.850,121.147 262.850 C 121.334 262.850,121.136 262.627,120.037 261.595 L 118.855 260.485 119.965 261.668 M187.181 268.699 C 186.161 269.726,185.383 270.566,185.451 270.566 C 185.520 270.566,186.410 269.726,187.430 268.699 C 188.450 267.673,189.228 266.833,189.160 266.833 C 189.091 266.833,188.201 267.673,187.181 268.699 M295.942 269.757 L 295.084 270.691 296.017 269.833 C 296.886 269.035,297.065 268.824,296.875 268.824 C 296.834 268.824,296.414 269.244,295.942 269.757 M276.980 272.240 C 277.428 272.296,278.100 272.294,278.474 272.238 C 278.848 272.181,278.482 272.135,277.660 272.137 C 276.839 272.138,276.533 272.185,276.980 272.240 M286.061 273.227 C 286.301 273.290,286.693 273.290,286.932 273.227 C 287.172 273.164,286.976 273.113,286.497 273.113 C 286.017 273.113,285.821 273.164,286.061 273.227 M180.329 275.856 L 178.594 277.660 180.398 275.925 C 182.074 274.312,182.317 274.051,182.134 274.051 C 182.096 274.051,181.284 274.863,180.329 275.856 M173.491 282.887 C 172.471 283.914,171.693 284.754,171.761 284.754 C 171.830 284.754,172.720 283.914,173.740 282.887 C 174.760 281.861,175.538 281.021,175.470 281.021 C 175.401 281.021,174.511 281.861,173.491 282.887 M167.019 289.608 C 165.999 290.635,165.221 291.475,165.289 291.475 C 165.358 291.475,166.248 290.635,167.268 289.608 C 168.288 288.581,169.067 287.741,168.998 287.741 C 168.930 287.741,168.039 288.581,167.019 289.608 M231.310 289.110 C 231.311 289.795,231.360 290.045,231.417 289.667 C 231.474 289.288,231.473 288.728,231.414 288.422 C 231.354 288.116,231.308 288.426,231.310 289.110 M159.801 297.075 C 158.781 298.102,158.003 298.942,158.071 298.942 C 158.139 298.942,159.030 298.102,160.050 297.075 C 161.070 296.049,161.848 295.208,161.780 295.208 C 161.711 295.208,160.821 296.049,159.801 297.075 M156.544 301.581 C 156.265 301.918,155.939 302.887,156.190 302.636 C 156.236 302.590,156.256 302.479,156.233 302.391 C 156.210 302.302,156.405 301.994,156.666 301.706 C 156.927 301.418,157.080 301.182,157.007 301.182 C 156.935 301.182,156.726 301.362,156.544 301.581 M154.704 302.421 C 154.459 302.692,154.176 302.862,154.076 302.800 C 153.845 302.658,153.030 303.539,153.219 303.727 C 153.391 303.899,152.054 304.874,151.712 304.826 C 151.575 304.807,151.463 305.016,151.463 305.289 C 151.462 305.571,151.319 305.757,151.133 305.719 C 150.951 305.681,150.875 305.766,150.962 305.907 C 151.049 306.048,150.952 306.229,150.746 306.308 C 150.541 306.387,150.185 306.737,149.955 307.087 C 149.574 307.669,149.625 307.654,150.547 306.913 C 151.102 306.467,151.618 305.940,151.694 305.742 C 151.770 305.544,151.941 305.449,152.074 305.532 C 152.207 305.614,152.543 305.453,152.822 305.174 C 153.101 304.895,153.333 304.751,153.337 304.854 C 153.341 304.956,153.460 304.842,153.601 304.600 C 153.742 304.357,153.980 304.234,154.130 304.327 C 154.300 304.432,154.330 304.379,154.211 304.186 C 154.073 303.963,153.944 303.953,153.749 304.148 C 153.600 304.296,153.365 304.418,153.227 304.418 C 153.088 304.418,153.526 303.858,154.200 303.174 C 154.875 302.489,155.364 301.929,155.287 301.929 C 155.211 301.929,154.948 302.150,154.704 302.421 M194.955 302.676 C 194.955 303.155,195.006 303.351,195.069 303.111 C 195.132 302.872,195.132 302.480,195.069 302.240 C 195.006 302.001,194.955 302.197,194.955 302.676 M154.655 303.221 C 154.322 303.590,154.300 303.745,154.548 303.988 C 154.718 304.156,154.837 304.182,154.811 304.045 C 154.671 303.305,154.817 303.109,155.258 303.446 C 155.498 303.629,155.611 303.681,155.509 303.562 C 155.408 303.442,155.434 303.212,155.568 303.051 C 155.984 302.549,155.117 302.711,154.655 303.221 M191.480 312.134 C 191.480 312.750,191.529 313.002,191.588 312.694 C 191.648 312.386,191.648 311.882,191.588 311.574 C 191.529 311.266,191.480 311.518,191.480 312.134 M187.434 314.063 C 187.436 314.332,187.508 314.394,187.620 314.225 C 187.721 314.075,187.971 313.887,188.177 313.809 C 188.426 313.714,188.364 313.661,187.990 313.648 C 187.614 313.634,187.431 313.771,187.434 314.063 M147.296 319.031 C 147.606 319.091,148.054 319.088,148.292 319.026 C 148.530 318.964,148.276 318.915,147.729 318.918 C 147.181 318.921,146.986 318.972,147.296 319.031 M352.781 322.589 C 352.781 323.342,352.828 323.650,352.885 323.273 C 352.942 322.897,352.942 322.281,352.885 321.904 C 352.828 321.528,352.781 321.836,352.781 322.589 M48.637 325.825 C 48.637 327.810,48.675 328.622,48.722 327.629 C 48.770 326.637,48.770 325.012,48.722 324.020 C 48.675 323.027,48.637 323.839,48.637 325.825 M352.781 329.060 C 352.781 329.813,352.828 330.121,352.885 329.745 C 352.942 329.368,352.942 328.752,352.885 328.376 C 352.828 327.999,352.781 328.307,352.781 329.060 M114.565 329.488 C 114.943 329.545,115.503 329.544,115.809 329.484 C 116.115 329.425,115.806 329.379,115.121 329.380 C 114.437 329.382,114.186 329.431,114.565 329.488 M123.028 329.488 C 123.406 329.545,123.966 329.544,124.272 329.484 C 124.578 329.425,124.269 329.379,123.584 329.380 C 122.900 329.382,122.649 329.431,123.028 329.488 M280.958 329.983 C 281.266 330.042,281.770 330.042,282.078 329.983 C 282.386 329.923,282.134 329.875,281.518 329.875 C 280.902 329.875,280.650 329.923,280.958 329.983 M288.180 329.983 C 288.489 330.043,288.937 330.040,289.175 329.978 C 289.413 329.916,289.160 329.867,288.612 329.870 C 288.065 329.873,287.870 329.924,288.180 329.983 M352.516 333.541 C 352.516 334.020,352.567 334.216,352.630 333.976 C 352.692 333.737,352.692 333.345,352.630 333.105 C 352.567 332.866,352.516 333.062,352.516 333.541 M55.448 338.944 C 55.757 339.003,56.205 339.001,56.443 338.939 C 56.681 338.877,56.428 338.828,55.881 338.831 C 55.333 338.833,55.138 338.884,55.448 338.944 M62.788 338.939 C 63.027 339.002,63.419 339.002,63.659 338.939 C 63.899 338.877,63.703 338.826,63.223 338.826 C 62.744 338.826,62.548 338.877,62.788 338.939 M7.708 347.169 L 6.347 348.600 7.778 347.239 C 8.566 346.491,9.210 345.847,9.210 345.808 C 9.210 345.623,8.972 345.839,7.708 347.169 M202.803 347.905 C 203.113 347.964,203.561 347.962,203.799 347.900 C 204.037 347.837,203.783 347.789,203.236 347.791 C 202.688 347.794,202.494 347.845,202.803 347.905 M-0.000 357.250 C -0.000 357.352,90.028 357.408,200.062 357.374 C 310.096 357.340,367.530 357.284,327.691 357.250 C 132.536 357.081,-0.000 357.081,-0.000 357.250 " stroke="none" fill="#4d739a" fill-rule="evenodd"></path><path id="path4" d="" stroke="none" fill="#3f7f7f" fill-rule="evenodd"></path></g></svg>